<svg version="1.2" xmlns="http://www.w3.org/2000/svg" viewBox="0 0 160 150" width="160" height="150"><style>.a{fill:#f2771e}.b{fill:#a05017}.c{fill:#f78f49}.d{opacity:.2;mix-blend-mode:multiply;fill:#f2771e}.e{fill:#efd8c7}.f{opacity:.5;mix-blend-mode:multiply;fill:#efd8c7}.g{fill:#e5c2aa}.h{mix-blend-mode:multiply;fill:#efd8c7}.i{opacity:.3;mix-blend-mode:multiply;fill:#e5c2aa}.j{opacity:.1;mix-blend-mode:multiply;fill:#f2771e}.k{opacity:.5;fill:#f78f49}.l{opacity:0;mix-blend-mode:multiply;fill:#f2771e}.m{fill:#ed833b}.n{opacity:.5;mix-blend-mode:multiply;fill:#ed833b}.o{fill:#e26b1b}.p{opacity:.5;mix-blend-mode:multiply;fill:#f2771e}.q{opacity:.7;mix-blend-mode:multiply;fill:#f2771e}.r{opacity:.5;fill:#f79f63}.s{opacity:.3;mix-blend-mode:multiply;fill:#f2771e}</style><path class="a" d="m154.5 76.8l-8.6 16.8-11.9 4.1-40.2-2.4-16.5 17 15.5 30.7-26.3-4.1-50.9-31.8-10.1-36.3 23-23.4-3.3-4.6 22.6-12 24.8-3 15.3-14.5 6-7.4 6 11.5 5.2-10.1 1.4 12.8-4.4 12.6 12.3 10.9 8.8 18z"/><path class="b" d="m104.5 58.8l-10.5-8.1h12.5l5.7 8.4z"/><path class="c" d="m93.9 5.9l1.2 12.7-8.6 17.9-13.9-8.7 15.1-14.3z"/><path class="c" d="m105.1 7.3l1.4 12.8-4.4 12.6-2.2-15.3z"/><path class="d" d="m95.1 18.6l-1.2-12.7 6 11.5 2.2 15.3-15.6 3.8z"/><path class="b" d="m154.5 76.8l-3.6 7-3.6-3.4-0.3-7.2z"/><path class="e" d="m62.2 72l18.2-1.5 39.3 17.4 22.8 5 3.4 0.7-11.9 4.1-40.2-2.4z"/><path class="e" d="m119.7 87.9l-25.9 7.4-13.4-24.8z"/><path class="f" d="m119.7 87.9l-25.9 7.4-13.4-24.8z"/><path class="e" d="m77.3 112.3l-15.1-40.3 31.6 23.3z"/><path class="g" d="m77.3 112.3l-29.5-24.7 14.4-15.6z"/><path class="e" d="m77.3 112.3l-36-1.4 6.5-23.3z"/><path class="h" d="m77.3 112.3l-36-1.4 6.5-23.3z"/><path class="g" d="m41.3 110.9l36 1.4-26.6 16.7z"/><path class="g" d="m77.3 112.3l-10.8 26.6-15.8-9.9z"/><path class="i" d="m77.3 112.3l-10.8 26.6-15.8-9.9z"/><path class="e" d="m77.3 112.3l15.5 30.7-26.3-4.1z"/><path class="a" d="m80.6 70.5l42.6-8.9-3.5 26.3z"/><path class="j" d="m80.6 70.5l42.6-8.9-3.5 26.3z"/><path class="k" d="m62.2 72l-7.7-16.9 39.5-4.4-13.4 19.8z"/><path class="l" d="m106.5 50.7l7.9-7.1 8.8 18-11-2.5z"/><path class="a" d="m62.2 72l-7.7-16.9 26.1 15.4z"/><path class="m" d="m72.6 27.8l13.9 8.7-32 18.6-6.7-24.3z"/><path class="c" d="m25.2 42.8l22.6-12 6.7 24.3-26-7.7z"/><path class="m" d="m36.4 72.7l-7.9-25.3 26 7.7z"/><path class="c" d="m36.4 72.7l-30.9-1.9 23-23.4z"/><path class="m" d="m5.5 70.8l30.9 1.9-20.8 34.4z"/><path class="n" d="m5.5 70.8l30.9 1.9-20.8 34.4z"/><path class="a" d="m15.6 107.1l20.8-34.4-15.7 26.1z"/><path class="o" d="m47.8 87.6l-11.4-14.9 18.1-17.6 7.7 16.9z"/><path class="a" d="m41.3 110.9l-25.7-3.8 20.8-34.4 11.4 14.9z"/><path class="p" d="m41.3 110.9l-25.7-3.8 20.8-34.4 11.4 14.9z"/><path class="q" d="m50.5 128.8l-17.4-11-17.5-10.7 25.7 3.8z"/><path class="d" d="m147.3 80.4l-27.6 7.5 3.5-26.3 23.8 11.6z"/><path class="a" d="m150.9 83.8l-5 9.8-26.2-5.7 27.6-7.5z"/><path class="h" d="m62.3 71.9l18.2-1.3 13.1 24.6z"/><path class="r" d="m94 50.7l-7.5-14.2 20 14.2z"/><path class="s" d="m62.3 71.9l-7.8-16.8 26 15.5z"/><path class="k" d="m86.5 36.5l15.6-3.8 4.4 18z"/><path class="a" d="m106.5 50.7l-4.4-18 12.3 10.9z"/><path class="k" d="m114.4 43.6l8.8 18-16.7-10.9z"/><path class="d" d="m94 50.7l10.5 8.1-1.1 7-22.9 4.8z"/><path class="r" d="m112.2 59.1l-5.7-8.4 16.7 10.9z"/></svg>