<svg xmlns="http://www.w3.org/2000/svg" width="160" height="150" version="1.2"><style>.a{fill:#f2771e}.b{fill:#a05017}.c{fill:#f78f49}.d{opacity:.2;mix-blend-mode:multiply;fill:#f2771e}.e{fill:#efd8c7}.g{fill:#e5c2aa}.h{mix-blend-mode:multiply;fill:#efd8c7}.k{opacity:.5;fill:#f78f49}.m{fill:#ed833b}.r{opacity:.5;fill:#f79f63}</style><path d="m154.5 76.8-8.6 16.8-11.9 4.1-40.2-2.4-16.5 17L92.8 143l-26.3-4.1-50.9-31.8L5.5 70.8l23-23.4-3.3-4.6 22.6-12 24.8-3 15.3-14.5 6-7.4 6 11.5 5.2-10.1 1.4 12.8-4.4 12.6 12.3 10.9 8.8 18z" class="a"/><path d="M104.5 58.8 94 50.7h12.5l5.7 8.4z" class="b"/><path d="m93.9 5.9 1.2 12.7-8.6 17.9-13.9-8.7 15.1-14.3zM105.1 7.3l1.4 12.8-4.4 12.6-2.2-15.3z" class="c"/><path d="M95.1 18.6 93.9 5.9l6 11.5 2.2 15.3-15.6 3.8z" class="d"/><path d="m154.5 76.8-3.6 7-3.6-3.4-.3-7.2z" class="b"/><path d="m62.2 72 18.2-1.5 39.3 17.4 22.8 5 3.4.7-11.9 4.1-40.2-2.4z" class="e"/><path d="m119.7 87.9-25.9 7.4-13.4-24.8z" class="e"/><path d="m119.7 87.9-25.9 7.4-13.4-24.8z" style="opacity:.5;mix-blend-mode:multiply;fill:#efd8c7"/><path d="M77.3 112.3 62.2 72l31.6 23.3z" class="e"/><path d="M77.3 112.3 47.8 87.6 62.2 72z" class="g"/><path d="m77.3 112.3-36-1.4 6.5-23.3z" class="e"/><path d="m77.3 112.3-36-1.4 6.5-23.3z" class="h"/><path d="m41.3 110.9 36 1.4L50.7 129z" class="g"/><path d="m77.3 112.3-10.8 26.6-15.8-9.9z" class="g"/><path d="m77.3 112.3-10.8 26.6-15.8-9.9z" style="opacity:.3;mix-blend-mode:multiply;fill:#e5c2aa"/><path d="M77.3 112.3 92.8 143l-26.3-4.1z" class="e"/><path d="m80.6 70.5 42.6-8.9-3.5 26.3z" class="a"/><path d="m80.6 70.5 42.6-8.9-3.5 26.3z" style="opacity:.1;mix-blend-mode:multiply;fill:#f2771e"/><path d="m62.2 72-7.7-16.9L94 50.7 80.6 70.5z" class="k"/><path d="m62.2 72-7.7-16.9 26.1 15.4z" class="a"/><path d="m72.6 27.8 13.9 8.7-32 18.6-6.7-24.3z" class="m"/><path d="m25.2 42.8 22.6-12 6.7 24.3-26-7.7z" class="c"/><path d="m36.4 72.7-7.9-25.3 26 7.7z" class="m"/><path d="M36.4 72.7 5.5 70.8l23-23.4z" class="c"/><path d="m5.5 70.8 30.9 1.9-20.8 34.4z" class="m"/><path d="m5.5 70.8 30.9 1.9-20.8 34.4z" style="opacity:.5;mix-blend-mode:multiply;fill:#ed833b"/><path d="m15.6 107.1 20.8-34.4-15.7 26.1z" class="a"/><path d="M47.8 87.6 36.4 72.7l18.1-17.6L62.2 72z" style="fill:#e26b1b"/><path d="m41.3 110.9-25.7-3.8 20.8-34.4 11.4 14.9z" class="a"/><path d="m41.3 110.9-25.7-3.8 20.8-34.4 11.4 14.9z" style="opacity:.5;mix-blend-mode:multiply;fill:#f2771e"/><path d="m50.5 128.8-17.4-11-17.5-10.7 25.7 3.8z" style="opacity:.7;mix-blend-mode:multiply;fill:#f2771e"/><path d="m147.3 80.4-27.6 7.5 3.5-26.3L147 73.2z" class="d"/><path d="m150.9 83.8-5 9.8-26.2-5.7 27.6-7.5z" class="a"/><path d="m62.3 71.9 18.2-1.3 13.1 24.6z" class="h"/><path d="m94 50.7-7.5-14.2 20 14.2z" class="r"/><path d="m62.3 71.9-7.8-16.8 26 15.5z" style="opacity:.3;mix-blend-mode:multiply;fill:#f2771e"/><path d="m86.5 36.5 15.6-3.8 4.4 18z" class="k"/><path d="m106.5 50.7-4.4-18 12.3 10.9z" class="a"/><path d="m114.4 43.6 8.8 18-16.7-10.9z" class="k"/><path d="m94 50.7 10.5 8.1-1.1 7-22.9 4.8z" class="d"/><path d="m112.2 59.1-5.7-8.4 16.7 10.9z" class="r"/></svg>