<svg xmlns="http://www.w3.org/2000/svg" width="2049" height="1152" version="1.2"><defs><linearGradient id="P" gradientUnits="userSpaceOnUse"/><linearGradient id="g1" x1="93" x2="93" y1="463.6" y2="587.1" href="#P"><stop offset=".4" stop-color="#22104a"/><stop offset=".9" stop-color="#0c0a22"/></linearGradient><linearGradient id="g2" x1="159.1" x2="159.1" y1="469" y2="592.4" href="#P"><stop offset=".4" stop-color="#22104a"/><stop offset=".9" stop-color="#0c0a22"/></linearGradient><linearGradient id="g3" x1="247.7" x2="247.7" y1="496.1" y2="601" href="#P"><stop offset=".4" stop-color="#22104a"/><stop offset=".9" stop-color="#0c0a22"/></linearGradient><linearGradient id="g4" x1="342" x2="342" y1="527.8" y2="632.6" href="#P"><stop offset=".4" stop-color="#22104a"/><stop offset=".9" stop-color="#0c0a22"/></linearGradient><linearGradient id="g5" x1="407.5" x2="407.5" y1="573.6" y2="678.4" href="#P"><stop offset=".4" stop-color="#22104a"/><stop offset=".9" stop-color="#0c0a22"/></linearGradient><linearGradient id="g6" x1="465.2" x2="465.2" y1="593.3" y2="698.1" href="#P"><stop offset=".4" stop-color="#22104a"/><stop offset=".9" stop-color="#0c0a22"/></linearGradient><linearGradient id="g7" x1="504.4" x2="504.4" y1="608.9" y2="768" href="#P"><stop offset=".4" stop-color="#22104a"/><stop offset=".9" stop-color="#0c0a22"/></linearGradient><linearGradient id="g8" x1="607.7" x2="607.7" y1="617.5" y2="722.3" href="#P"><stop offset=".4" stop-color="#22104a"/><stop offset=".9" stop-color="#0c0a22"/></linearGradient><linearGradient id="g9" x1="666.9" x2="666.9" y1="651.9" y2="756.7" href="#P"><stop offset=".4" stop-color="#22104a"/><stop offset=".9" stop-color="#0c0a22"/></linearGradient><linearGradient id="g10" x1="749.1" x2="749.1" y1="662.9" y2="767.7" href="#P"><stop offset=".4" stop-color="#22104a"/><stop offset=".9" stop-color="#0c0a22"/></linearGradient><linearGradient id="g11" x1="963.3" x2="963.3" y1="798.6" y2="867.5" href="#P"><stop offset=".4" stop-color="#22104a"/><stop offset=".9" stop-color="#0c0a22"/></linearGradient><linearGradient id="g12" x1="827.3" x2="827.3" y1="727.1" y2="795.9" href="#P"><stop offset=".4" stop-color="#22104a"/><stop offset=".9" stop-color="#0c0a22"/></linearGradient><linearGradient id="g13" x1="881.7" x2="881.7" y1="740.5" y2="809.3" href="#P"><stop offset=".4" stop-color="#22104a"/><stop offset=".9" stop-color="#0c0a22"/></linearGradient><linearGradient id="g14" x1="1965.2" x2="1965.2" y1="359.8" y2="464.6" href="#P"><stop offset=".4" stop-color="#22104a"/><stop offset=".9" stop-color="#0c0a22"/></linearGradient><linearGradient id="g15" x1="1870.9" x2="1870.9" y1="414.5" y2="519.4" href="#P"><stop offset=".4" stop-color="#22104a"/><stop offset=".9" stop-color="#0c0a22"/></linearGradient><linearGradient id="g16" x1="1805.4" x2="1805.4" y1="481.1" y2="586" href="#P"><stop offset=".4" stop-color="#22104a"/><stop offset=".9" stop-color="#0c0a22"/></linearGradient><linearGradient id="g17" x1="1746.4" x2="1746.4" y1="512.8" y2="617.6" href="#P"><stop offset=".4" stop-color="#22104a"/><stop offset=".9" stop-color="#0c0a22"/></linearGradient><linearGradient id="g18" x1="1675.7" x2="1675.7" y1="489.2" y2="706.2" href="#P"><stop offset=".4" stop-color="#22104a"/><stop offset=".9" stop-color="#0c0a22"/></linearGradient><linearGradient id="g19" x1="1622" x2="1622" y1="569.7" y2="674.5" href="#P"><stop offset=".4" stop-color="#22104a"/><stop offset=".9" stop-color="#0c0a22"/></linearGradient><linearGradient id="g20" x1="1546" x2="1546" y1="623.7" y2="728.5" href="#P"><stop offset=".4" stop-color="#22104a"/><stop offset=".9" stop-color="#0c0a22"/></linearGradient><linearGradient id="g21" x1="1465.3" x2="1465.3" y1="662.2" y2="767" href="#P"><stop offset=".4" stop-color="#22104a"/><stop offset=".9" stop-color="#0c0a22"/></linearGradient><linearGradient id="g22" x1="1238.7" x2="1238.7" y1="786.4" y2="855.3" href="#P"><stop offset=".4" stop-color="#22104a"/><stop offset=".9" stop-color="#0c0a22"/></linearGradient><linearGradient id="g23" x1="1410.5" x2="1410.5" y1="740.5" y2="809.3" href="#P"><stop offset=".4" stop-color="#22104a"/><stop offset=".9" stop-color="#0c0a22"/></linearGradient><linearGradient id="g24" x1="1324.6" x2="1324.6" y1="762.2" y2="831.1" href="#P"><stop offset=".4" stop-color="#22104a"/><stop offset=".9" stop-color="#0c0a22"/></linearGradient></defs><style>.b{fill:#043175}.c{fill:#094193}.d{fill:#175cad}.e{fill:#0f2b4c}</style><path d="M471.4 540c10.1-7.2 20.1-14.7 30.3-21.6 14.3-9.7 29.5-17.3 43.9-26.7 19.4-12.6 37.2-27.9 56.1-41.1 16.8-11.8 30.9-28.4 48.1-39 2.3-1.4 4.5-3.3 6.9-4.5 3.6-1.7 7.5-1.7 11.1-3.6 3.3-1.7 5.2-4.7 8-7.1 4.3-3.5 5.8.3 9.1 3.6 7.2 7.2 16.1 11 22.8 18.6 3.5 4.1 8 6.2 11.6 10.3 4.2 4.9 8.2 11 13.5 14.4 5 3.2 11 2.2 16 5.8 5.4 3.9 8.8 11.5 11.5 17.8 3.1 7.1 5.9 14.7 13.3 16.6 8 2.1 16.7 1.8 23.9 6.5 9.3 6 12.8 16.5 18.8 25.8 5.6 8.9 12.7 16.6 20.9 22.4 9.7 6.8 21.1 10.1 30.4 17.6 5 4 9 9.5 13.8 13.8 3.5 3.1 7.2 5.6 10.9 8.3 10.9 8.1 22 13.8 34.6 18.1 11.8 4 23.3 8.8 34.8 13.5 3.8 1.6 7.6 3.4 11.3 5.3.3.2 9.7 4 10.1 5.1.5 1.2.3 1.7-.2 2.8q-3.7 3.1-7.8 5.5-7.2 5-14.1 10.6c-13.6 10.4-27.1 19.7-39.2 32.3-8.7 9.1-17.3 18.4-26.6 26.6-9.3 8.3-18.6 15.8-28.8 22.4-15.5 9.8-29.6 22.3-46.4 29.3-21.7 9-47.5 7.5-70.3 8.8-32.6 1.8-65.9 3.4-98.4-2.4-17.1-3-34.1-8.1-51.1-12.4-14.8-3.7-29.7-7-44.3-11.9-24.2-8-48.7-18.1-71.3-30.9-13-7.3-29.7-15.2-36.9-30.6-6.1-13 .6-25.6 3.7-38.4 1.1-4.6 2.6-9.4 2.5-14.1 0-3.8-1.8-7.2-2.3-10.9-1.4-8.9-.5-18.7 2.9-26.9z" style="fill:#0c4393"/><path d="M931.8 961.4H-13.1V539.2c11-15.3 24-27.8 36.4-42 3.9-4.5 6.6-8.2 11.1-12 5.1-4.3 9-9.4 12.2-15.5 4.8-8.9 11.1-16.9 16.9-24.9 5-6.8 10.9-13.8 15.5-21.4 4.1-6.6 9.6-12.3 14.7-18.3 7.2-8.6 14.5-16.4 23.2-23 7.1-5.5 12.8-13.1 20-18.6 6.3-4.8 9.9-10.9 15.8-16 2.6-2.3 6.5-4.2 8.8-6.8 2.4-2.7 3.6-6.5 6-9.3 6.9-8.4 15.1-15.9 22.5-23.6 4.2-4.4 8.6-8.9 12.8-13.3 3.9-4.1 9.1-6.5 13.3-9.6 6.4-4.8 11.5-10.7 18.6-14 3.7-1.7 10-4 12.7-7.7 7.3 4.1 12.9 10.3 19.5 15.2 5.9 4.3 8.7 10.3 12.9 16.2 2.6 3.6 3.9 7.7 6.6 11.5 1.8 2.7 4.1 5 6.1 7.4 4.2 5 9.4 8.9 13.2 14.4 5.5 8.3 8.5 19.6 15.4 26.6 7.8 7.9 17.9 10.6 26.9 16 7.5 4.5 13.5 13.5 18.3 21.2 3.1 5 4.4 9.4 8.6 13.4 3.2 3 6.7 6.2 10.2 8.5 9.8 6.7 16.4 17.3 24.6 26.5 8.4 9.4 16.8 18.7 25.1 28.2 5.1 6 11.4 6.1 15.7 13 3.7 5.9 7.7 12.7 12.5 17.6 5.9 6 10.2 13 16 19.1 6.1 6.6 10.6 3.6 18.6 4.8 5 .7 9.5 2.2 14.7 2.1 6.2-.1 11.2.5 16.9 3.6 9.6 5.3 15.2 14.4 26 17.8 5.5 1.7 10.9 1.4 16.4 1.9 3.9.3 17 .3 20.4 3.6 3.3 3.3 1.3 8.6 1.6 13.4.3 8.5 4.1 13.2 10.2 18.4 25.3 21.5 53.6 38.2 79.4 58.9 20 16.1 44.8 27.5 62.4 47.1 11.1 12.4 21.1 23.7 26.4 40.3 3 9.5 5.3 19.4 8.5 28.8 4.1 11.8 10 22.7 16.1 33.3 8.6 14.9 18.7 28.4 27.6 43 6 9.9 11.2 21 18.7 29.6 10.7 12.5 24 22.4 35.5 33.9 8.2 8 13.6 19 22.2 26.5 5.5 4.8 12.2 7.4 18 11.7 6.1 4.5 15.6 15.2 13.2 24.7z" class="b"/><path d="M647.1 822.1c-3.6-16.9-5.1-31.7-1.9-48.9 4.4-23.2 8.7-45.4 3.3-68.7-2.6-11.4 1.8-20.6 2.6-32.1l10.3-39.2c3.4-4.4 8.8-1.5 13.3-2.2 6.2-1 13.9-6.4 19.4-10.4 6.8-5 13.5-9.1 20.6-13.3 2.9-1.6 4.5-4.5 7-6.5 3.6-2.8 8.8-4.4 12.9-6.2 8.2-3.6 14.4-8.3 21.2-14.5 6.2-5.6 14.6-8.3 21.4-12.8 4.8-3.2 7.7-7.1 13.2-7.8 6.3-.9 11.5-4 16.9-7.5 5.1-3.2 9.5-7.3 15.1-9.8 7-3.1 14-8.7 21.4-10.3 9.3-2 16.1 3.2 22.9 8.6 8.2 6.6 18.7 5.1 28.2 5.1 3.1.1 6.2.4 9.3-.1 3.1-.6 5.9-2.6 9.1-2.3 6.1.4 12.9 5.3 18.5 7.6 5.6 2.4 11.4 6.1 17.4 6.5 7.8.4 16.1-1.4 23.8 0 15.1 2.5 27.6 21.6 43.3 13.7 7-3.4 13.7-5.9 20.2-10.4 8.3-5.5 15.2-11.1 22.4-18.2 5-5 10-9.2 14.8-14.5 3.4-3.9 6.2-8.4 9.6-12.3 5-5.7 11.8-9 17.1-14.4 3.8-3.8 7.8-6 12.2-9 5.4-3.6 9.7-8.8 15.2-12.3 2.7-1.8 7.3-6 10.2-6.8 3.1-.9 2.2.1 4.8 2.3 2.5 2.1 6.1 6 8.7 7.6 4.5 2.7 9.6-1.1 13.9-2 22.7-4.8 46.2 8.5 65.5 19.7 7.6 4.4 16.1 11.8 24.6 12.9 10.1 1.2 20.7.5 30.8 2.4 5.2 1 9.8 3.9 14.4 6.7 5 3 9.8 4.2 15.3 6 10.6 3.5 22.7 5.2 33.6 1.9 13.1-4 25.2-12 37.2-19 13.7-8.1 28-15.7 40.9-25.3 11.4-8.5 24.2-14.1 35-23.7 10.1-8.8 19.5-18.4 29.5-27.4 4.7-4.3 8.6-9.3 12.7-14.4 8.3-10.1 16.3-19.1 26.7-26.7 18.9-13.5 38-26.3 54.7-43.1 2.9-2.9 4.9-6.3 8.3-9 4.9-3.9 8.7-7.6 13-12.5 4.6-5.3 10.9-8.1 14.8-13.7 2.5-3.6 3.5-8.3 5.5-12.7 4-8.5 12.5-16.6 19.4-22.4 12.2-10.4 25.2-19.5 37.6-29.4 4-3.2 8.6-5.6 12.5-8.7 3.1-2.5 4.3-5 6.7-8.5 5.7-7.7 12.3-14.5 18.2-21.9 3.3-4.1 4.9-9.3 8.6-13.1 3.8-4 7.1-8.3 10.8-12.5 5.4-6 10-10.8 14.8-17.5 5.3-7.3 12-13.1 18.5-18.8 7.4-6.6 13.9-13.8 21.5-20 5-4.1 11-7.5 16.3-10.8 11.9-7.5 22.7-17.3 36-22.1 3.4-1.2 9.6-3.7 12.8-2.9 4.3 1.1 8 4.4 10.1 8.7 3.2 6.3 7.6 8.3 11.7 13 4.8 5.4 7.9 13.4 14.5 16.9 28.4 14.8 51.4 42.1 72.3 68.2 16.2 20.2 33.7 39 49.4 59.7 12.7 16.8 26.1 33.1 39.1 49.9v650.5H716.4c-16.4-3.7-33.1-6.1-48.7-12.6-3.1-1.2-8.1-2.7-10.4-5.5-3-3.7-2-5.2-1.3-10.1 2.4-15.8 7.2-29.6 6.9-46-.5-23-11.1-43-15.8-65.1z" class="b"/><path d="M237.9 292.9c3.1 3 6.2 5.3 8.4 9.4 4.4 8.2 11.1 13.6 16.2 21.3 4.1 6 6.7 10.1 12.5 14 7.7 5.2 11.1 16.2 18.5 21.5 3.8 2.6 6.7 3.6 9.5 7.8 2.3 3.4 3.8 7.4 6.3 10.6 4.2 5.3 5.7.8 10.8 1.8 5.7 1.1 9.5 7.5 13.1 12 3.5 4.4 6.9 8.2 11.1 11.8 3.1 2.6 6.7 5.1 8.9 8.8 7.6 12.8-14.6 5.5-18.7 5.4 1 3.8 3.7 7.2 5.1 10.9 2.5 6.4 4.5 13 7.7 19 4.9 9.2 10.6 17.5 15.2 26.8 2.5 5.3 5.3 12.1 9 16.4 3.8 4.3 7.6 5.1 12.6 6.7 11.7 3.9 19.7 12 29 20.2.2-3.1-3.2-7.2-4.3-9.5-1.8-3.6-2.6-7.7-3.5-11.7-2.2-10.3-5.2-19.7-8-29.7 5.9 3.5 11.3 8 15.8 13.6 6.6 8.3 13.6 12.2 23.1 15.1 2.7.8 6.3 1.6 8.8 3.3 2.3 1.6 4.1 4.6 6 6.6 5.8 6 11.4 12.7 17.4 18.4 6.8 6.5 15.9 7.4 22.2 14.7 9.1 10.6 16.2 23.9 24.6 35.2 4.4 5.8 9.1 11.8 14.1 16.9 5.1 5.3 12.4 9.3 18.3 13.4 6.8 4.6 13.4 9.9 20.3 14.4-5.4 10.2-19.5 8.5-28.1 8.4-7.2-.1-14.4.3-21.5-.1s-14-2.5-21.1-3.4c-6.3-.8-12.7-3.8-19.1-3.6-1.8 0-7 .3-8.1 2.2-2.7 4.7 3 11.9 1.3 16.8-12 2.9-21.4-5.6-30.4-12.8-6.1-4.8-11.6-10-16.8-16-3.9-4.6-8.3-11-14.6-11.1-6.2-.2-10 4.7-16.5 2.9-5.3-1.4-8.9-4.9-13.5-7.9-7.7-5-8.8 6.2-11.4 12.2-2.8-.3-4.8-6.5-6.2-9-1-1.9-1.7-5.1-3.1-6.8-1-1.3-2.3-1.4-3.4-2.6-3.4-3.6-5.5-9.7-8-14.1-4.2-7.7-7.1-16.1-11.4-23.8-4.1-7.3-6.9-15.1-10.5-22.7-3.3-6.7-5.7-15.2-10.9-20.3-3.2-3.3-7.2-5-9.2-9.7-2.6-6.3-4.3-12.5-7.9-18.4-4.4-7.1-12.6-20.6-21.2-14.3-4 2.9-4.5 5.2-7.9.1-3.4-5.2-4.8-11.3-7.9-16.5-5.9-9.8-1.8-18-3.8-28.7-1.4-7.5-1.8-15-4.2-22.2-1.5-4.7-5.8-12.3-5.3-17.2 2.5-1.1 6.1 3.4 8.9 3.2.5-5.4-3.3-13.1-5.2-18-2.9-7.2-5.7-15.5-7.3-23.2-1.9-8.7-3.4-17.2-5.4-25.8-1.5-6.3-4.6-10.8-5-17.5zM128.7 396.6c2.7-2.9 5.8-4.8 8.5-7.8 1.9-2.2 3.9-3.9 5.7-6 5.1-5.8 10.3-10.6 16-15.5-2.3 3.9-2.9 6.2-4 10.3-.5 2.2-1.9 5.7-3 7.7-2.3 4.2-6.6 7.7-9.4 11.7-2 3.1-5.5 6.7-4.6 10.9 1.2 5.7 11.8-.3 9.2 10.3-1.5 5.9-9.4 12.5-.7 16.2 3.1 1.3 5.7.9 5.3 5.1-.2 2.1-5.1 8.8-6.1 10.4-1.3 1.9-2.8 3.4-4.1 5.3-3.5 4.9-6 10.7-9.3 15.8-4.4 6.7-9.4 12.4-14.3 18.7-9.2 11.6-21.9 19.2-32.4 29.2-5.2 4.9-9.9 10.2-15 15.2-3.5 3.4-4.8 6.4-7.7 10.6-5 7.4-12.3 15.5-19.1 20.9-2.5 2.1-5.5 5.6-8.4 7-1.5.7-3.2.6-4.7 1.3.4-3.3 2.7-5.7 4.4-8.3 2.8-4.3 4.6-8.9 6.9-13.6 4-8.3 11.3-14.4 15.8-22.4 4.3-7.5-2.8-7.6-7.7-5.7-6.4 2.5-13.6 7.9-20.6 7.6 3.4-4.5 1.5-9.8 4-14.6 3.4-6.3 7.7-10.7 12.1-16.3 7.2-9.2 13.6-18.9 21.4-27.6 3.7-4.1 8.4-8.5 11.2-13.4 1-1.6 1.5-3.5 2.5-5.1.8-1.2 1.5-.8 2-2.3-3.5-1.7-8.2.5-11.8-.6 8.1-12.9 20.1-24.9 31.1-34.9 6.1-5.5 12.2-11.1 18.4-16.6 4.4-4 8-7.5 13.1-10.4zM705 631.6c7.2 0 14.4-.2 21.5 0 5 .1 10.4 1.1 15.3 2 6.4 1.3 13.1 6.4 19.7 4.8-2.1-6.9-7.6-9.8-8.7-17.3-.3-2.3-1-7.7.1-9.9 3.1-5.9 19.7-.8 23.8-.4 3 .3 8.5 3.3 11.1 1.2 3-2.6 1.1-6.2 4.6-9 2.9-2.2 7.5-4.1 11-4.4 2.6-.2 3.8 1.4 6.1 2 7.9 1.8 11.8-5.9 17.3-10.7 2.9-2.4 4.2-2.6 7.3-3.2 2.9-.6 3.6-1.3 5.3-4.3 2.9-4.8 7.7-14.6 13.9-12.9 3 .8 8.2 4.4 9.6 7.1 1.5 2.9 2.6 6.2 4.2 9.2 1.1 2 2.2 3 3.4 4.6 4.7 6 7.9 12.6 12.1 18.9 5.8 8.9 13.5 15.7 19.7 23.9 3.9 5 9.1 7.5 13 12.3 3.4 4.2 6.4 5.5 10.6 8.4 2.2 1.6 8.4 5.8 7.9 9.5-.2 1.6-3.4 3.3-4.7 4-8.6 4.9-18.7 5.7-28.2 5.6-6.7 0-16.8-2-17.7 7.8-.6 6.7-1.2 11.2-7.6 14.4-3 1.5-7.5 3-10.8 3.5-3.4.5-6.9-1.4-10.4-1.5-5.3-.2-7.5-.3-6.7 6.1.9 7 3.3 14.6 7.1 20.4 1.6 2.4 3.6 5.6 5.4 7.8 1.4 1.6 4.2 2.6 2.8 5.2-1.2-.3-1.5-1.3-2.7-1.9-2.1-1.1-3.6-.8-5.8-1.6-4.4-1.5-8.7-5-13.1-7-3.6-1.6-6.7-4.6-10.4-6.1-3.5-1.4-6.7-2.4-10-4.7-4.6-3.1-7.9-7.9-12.9-10.3-4.2-2.1-9.2-3.1-13.7-4-7.8-1.7-14.7-4.7-21.8-9.1-2.2-1.3-4.9-4.1-7.4-4.9-1.3-.4-2.7 0-4-.4-2-.6-3.3-2.6-4.8-3.9-5.9-5.1-10.9-9.9-17.6-13.7-5.6-3.1-10.9-6.2-16.1-9.9-8-5.5-14.1-11.5-20.8-19zM1129.1 489.9c7.6 0 8.8 6.1 14.6 9.5 3.4 2 8.7-1.6 13.1-.1 3.9 1.3 3.1 3 3.1 7-.1 3-.5 5.3 1.7 7.3 3 2.8 7.5 2.8 10.6 5.6 9.8 8.7-12.5 14.5-18.2 13.8 2 .4 2.9 2.5 4.6 3.6 2.3 1.4 4.9 1.6 7.4 2.7 5.6 2.3 12.1 4.9 17.1 8.9 5.7 4.5 11.2 8.8 17.2 13 5.6 3.8 9.3 9.9 15 13.5 3 1.9 6.5 4.2 8.3 7.6 2.5 4.9-2 5.2-5.4 6.9-7.3 3.5-15 5.8-21.8 10.5-3.9 2.8-9.2 5.5-8.9 11.2.1 3.5 1.7 4.4 3.8 7.1 3.5 4.8 6.7 8.7 11.5 11.9 4.5 2.9 9.5 5 13.6 8.5 3.8 3.2 7.3 7.1 11 10.5 6.2 5.9 10.7 13.5 17.8 18.1 8.1 5.3 15.6 10.2 22.7 17.3 7 6.9 13.6 15.2 21.1 21.4 3.7 3 11.5 5 13.1 10.3-5.1 2-13.8-2.4-18.1-5.3-6.4-4.2-12.4-8.9-19.4-11.9-5.8-2.4-11.7-4.2-17.5-6.8-7-3-14.1-6.5-21.2-9.3-4.6-1.9-9.3-3.3-13.9-5.4-7.4-3.5-13.3-9.6-19.8-14.7-6.9-5.4-13.4-7.3-21.5-8.6-4.6-.8-8.7-2.7-12.1-6.4-3.4-3.8-5.5-8.3-8.1-12.7-3-5.2-5-2.5-9.1-.5-7.2 3.5-10.5 1.9-15.7-4.4-3.9-4.7-7.2-12.1-11.7-16-2-1.7-4.3-2.5-6.4-4.9-1.4-1.6-2.9-4.1-4.6-5.3-3.2-2.1-7.8-2-11.4-2.5-6.9-1-13.9-2.1-20.9-2.6-3.7-.2-7-1.5-10.6-2 .5-4.8 5.9-11.6 8.9-15.2 2.2-2.6 9.7-7.9 9.3-12-2.3 0-6.9 4.2-8.7 2.7.6-2.7 3-4.7 4.2-7.1 1.1-2.1 1.7-4.3 3-6.2 2.2-3.1 5.6-5.4 6.1-9.6-2 .8-5.2 2.1-7.2.8 2.2-2.5 5.1-4 7.4-6.5 1.9-2.2 3.2-4.7 4.9-7.1 3.2-4.7 7.6-7.1 11.2-11.1 4.2-4.7 6.8-9.1 11.6-13.3q9.1-7.7 18.3-15.3zM1830.1 134.5c3.6-4.3 9.8-5.5 14.1-8 5.8-3.5 8.9-7.7 16.1-7.7-1.9 2.3-3.7 4.8-5.7 7.2-2.2 2.7-2.2 3.7-3.4 6.9-4.8 12.1-19.3 18-22.4 31.2-.8 3.1-1 6.4-1.7 9.6-1.4 5.7-3.3 10.4-5.9 15.7-3.2 7-6.2 13.9-6.3 21.7-.1 6.4-3 12.7-4.7 18.7-1.9 6.8-4.5 13.4-6.4 20.3-1.7 6.2-1.5 8.8.2 14.4 1.5 4.8 1.8 8.4 1.6 13.7-.1 6.4-1.6 12.7-4 18.5-2.4 6.1-7.3 11.5-8.4 18.2-2.5 16.2 24.5 2.8 30.6 9.4-4.1 8.8-14.8 15-21.7 20.6-12.1 9.8-23.4 20.8-35.4 30.8-26.4 21.7-51.9 43.7-73.6 71.4-2.1 2.6-11.1 11.9-7.3 16.6 2.7 3.3 9.6-1.7 12.1 3.3 2.2 4.4-2.3 9.5-4.5 12.2-6.7 8-13.9 15.2-20.3 23.4-11.6 15-21.5 31.5-33.1 46.5-11.3 14.6-19.5 32.1-31 46.5-2.6 3.2-9.3 9.5-11.2 1.9-.7-2.4 1.4-6.7 2.1-8.8 1.6-4.7 3.7-9.3 4.3-14.4 1-8-1.8-8.3-8.3-5.2-4.4 2-9.9 8.3-14.8 8-1.7-.2-5.6-2.2-6.2-3.5-1.6-3.4 2.7-8.1 1.5-11.7-1.8.9-3.5 1.8-5.4.9 2.6-7 5.3-14.5 6.8-21.9.2-.8 2.6-10 2.1-11.1-.9-1.9-5.1.6-5.8 1-8.2 4-15.7 13-22 20-8 8.8-16.4 17.3-25.4 24.8-6.1 5.1-12.9 9-18.6 14.6-5.1 5-9.3 10.1-15.2 14-7.8 5.2-16.4 8.4-24.3 13.1-10.4 6.1-18.9 15-28.8 21.9-5 3.5-10.5 6.6-15.6 10-1.8 1.2-3.6 2.9-5.8 1.8 0-3.5 1.9-6.4 3-9.5 1.5-4.4 2.9-8.6 4.6-12.9 2.1-4.9 4.9-12.2 1.6-17.3-1.1-1.7-2.8-1.5-4-3.3-1.3-1.9.2-4.3-.8-6-1.2-2.3-5.1-.5-7.2-.9-2.2-.4-4.1-1.6-6.3-2.1.4-9.3-25.4-3.8-30.5-5.1 4-7.2 11.3-12.7 16.3-19.1 5.9-7.5 15.5-13.6 17.9-23.8-5.7.1-11.6 1.4-17.4 1.7 2.9-1.5 6-1.8 8.9-3.3 4.4-2.4 6.8-6.9 10.4-10.3 2.3-2.2 5-3.6 7.7-5.1 2.6-1.4 5.1-1.3 7.6-2.4 3-1.3 5.8-4.6 8-7 3-3.1 4-4.2 7.7-6.5 7.3-4.3 13.8-11.1 20.3-16.7 9.2-8 19.4-13.5 28.7-21.4 6.9-5.9 13.5-12.5 19.8-19.3 11.2-12.1 23.7-21.5 35.9-32.2 5.6-4.9 11.6-9 16.8-14.5 3.2-3.2 8.8-8.4 10.8-12.8-2.9 1.3-5.7 1.1-8.8 1.2 2.4.5 5-3.7 6.8-5.3 3.1-2.7 6-3.8 9.4-5.9 6.9-4.3 12.9-10.1 19.4-14.9 6.4-4.6 12.1-9.4 17.7-15.5 4.6-4.9 9.3-8 14.6-12 5.7-4.2 10.5-9.4 16-13.8 14.7-11.8 29.5-23.5 44.2-35.3 14.3-11.4 28.8-22.4 37.9-39.6 5.8-11 8.4-23.1 15.8-33.1 8.1-10.7 17.3-19.2 26.3-28.8-5 .8-13.3 2-11.2-5.7 1.5-5.5 4.5-10.2 8.5-13.7 3-2.6 8-5 10-8.9 1.2-2.4.6-5.1 1.7-7.6 3-7 11.6-11 17.1-14.8 8.6-5.9 16.1-15 26.5-14.7z" class="c"/><path d="M676.3 438.8c-.5-4.9-2.6-12.6-.6-17.4 2.2 1 7.1 4.1 7.6 6.8-2.3-1.7-3.3-5.2-1.5-7.6 1.8-2.5 5.8-2 8.4-1.7 2.8.4 4.8-1 6.5 1.8 1.2 1.8 1.8 4.1 3.1 5.9.7 1.1 1.5 2.1 2.2 3.3 1.6 2.8 3.2 5.3 5.2 8 2.4 3.1 5.9 6.1 9.1 8.3 3.2 2.2 5 5.7 8.1 8.1 5.3 4.1 10.5 8 15.6 12.4 4.6 3.9 8.6 8.4 12.9 12.7 10.9 11 22 21.6 32.3 33.3 2.4 2.8 4.6 6.2 7.7 8.2 2.1 1.2 4.5 1.3 6.5 2.7 2 1.4 2.7 3.9.1 5.2-1.2.7-3.6 1.4-5 1.8-2.5.7-3.4-.6-5.4-1.6-2.1-1.1-4.5-1.5-6.8-1.3-3.1.2-4.3 1.2-6.3 3.6-1.6 1.8-2.7 4.6-4.2 6.3-3.6 3.8-11.3-4.7-14.4-6.6-3.1-1.9-10.1-5.2-13.3-2.2-2 2-2.9 8.4-2.3 10.9-1.4-.8-.9-2.3-1.6-3.7-.7-1.3-1.8-2.5-2.5-3.7-2.8-4.1-6-7.9-8.4-12.3-2.8-5-4.6-11.7-8.9-15.5-1.2-1.1-2.5-1.3-3.8-2.2-1.6-1.2-2.5-2.9-3.6-4.6-3.6-6-6.1-12.9-9.9-18.7-1.2-1.7-3.2-4.4-5.5-3.9-1.1.3-1.6 1.8-2.8 1.9-4.3.6-7.1-12.7-8.4-15.6-2.4-5.4-4.9-10.6-7.3-16.1zM582.3 474.3c2-2.4 4.9-3.8 7.4-5.5 3-2 6.2-2.8 9.4-4.5 2.7-1.5 4.9-3.9 7.7-5.3 1.5-.8 3.2-1.1 4.8-2 6.5-3.5 12.4-8.5 18.3-13.3 4.5-3.6 9.8-5.9 14.3-9.5 1.6-1.2 4.8-3.2 6.8-2.1-.5 1.8-2 2.7-3.3 3.7-2.5 1.9-4.9 4.4-7.2 6.6-6.5 6.3-14.1 11.1-20.8 17.2-3.4 3.1-6.8 6.4-10.3 9.2-2.6 2-5.5 3-8 4.9.8.9 2.2.9 3.2 1.5-.3 1-1.3 1.7-2.1 2.4-2 1.9-3.9 4-6.1 5.7-3.6 2.9-7.1 5.8-10.8 8.5-9.8 7-17.3 17.6-28.2 22.8.5-1.3 2.6-2.4 3.6-3.5 1.1-1.3 1.6-2.6 2.3-4.2 1-2.2 7.3-7.1 6.5-9.6-1 0-2 .6-2.9.7-1.1.1-2 .3-3.1.8-2.2.9-3.9 1.5-6.3 1.5-3.4.1-7.4 2.4-10.5 4-2.2 1.1-4.5 3.1-6.8 3.7-1 .2-2 0-3 .1 1-.4 1.8-1.8 2.5-2.5 1.6-1.7 3.1-3.3 4.9-4.6 4.3-3.2 9-5.4 13.3-8.5 4.5-3.3 9.3-6.1 13.7-9.7 2.5-2 5.1-3.5 7.7-5.4 3-2.2 5.4-3.1 9-3.9-4.3.7-5.1.7-6 .8z" class="d"/><path d="M-13.1 961.4V512.2q1.5 1 2.9 2C.7 521.9 11 530 21.1 538.9c10.6 9.2 21 18 32.9 25.1 7 4.2 14 8.6 21.8 10.7 9.5 2.6 19.5 3.1 29.1 4.2 10.2 1.1 20.4 2.3 30.6 2.3 12.5-.1 25-1.9 37.5-1.6 26.8.7 54 3.9 79.8 12.5 21.9 7.3 42.2 18.5 63.5 27.5 23.8 10 48.4 17.8 73.2 23.7 23.8 5.7 48.2 8.4 72.1 13.1 23.4 4.5 44.5 15.1 66.6 24.3 8.5 3.6 15.9 9.4 24 13.8 8 4.3 16.2 8.4 24.4 12.1 19.8 9 41.6 11 62.4 15.8 8.3 2 16.2 5.6 24.5 7.7 6.5 1.6 13 3.5 19.6 5.1 6.2 1.6 12.3 3.4 18.4 5.3 7.5 2.3 15.2 3.1 22.7 5.1 10.5 2.8 21 3.5 31.7 4.8 6.1.8 12 .5 18.1-.5 7.4-1.1 14.5-.5 21.9-.7 7.7-.3 15.3-1.7 23-2 8.4-.2 16.8.1 25.2.1 17.9-.1 35.9 3.9 53.1 8.7 48.4 13.2 97.6 10.8 146.9 7 14.5-1.1 28.9-4.6 43.2-7 12.6-2.1 24.7-5.2 37.1-8.3 21.1-5.2 42.3-10.3 62.9-17.7 13.4-4.8 25.7-11 38.5-17.4 7-3.4 14.3-3.9 21.7-6.3 7.8-2.5 14.9-5.6 23.2-5.8 14.6-.2 25.7 10.3 39.7 12.1 17.5 2.2 35.9-.4 53-4.3 12.8-2.9 24.7-7.1 37.9-5.9 11.8 1 22.4 6.5 33.6 10.3 52.4 17.9 100.8-19.1 150.3-32.4 9.9-2.7 19.9-4.9 29.8-7.1 10.7-2.4 20.5-6.5 30.6-10.6 15-6.1 30.8-9.6 44.7-18.4 12.2-7.8 25.1-16.6 38.1-22.9 18.2-8.9 38.4-11.8 57.1-19.4 11.2-4.6 22.3-9.3 33.5-13.6 14.1-5.3 28.6-9.1 42.7-14.5 12.6-4.9 24.7-10.9 37.2-16.1 15.3-6.3 30-14 45-21 17.8-8.3 35.8-15.9 54.1-22.3 13.2-4.6 26-10.9 39.4-14.2 5-1.2 9.1-4.1 13.9-5.9 3.4-1.3 7-2.4 10.5-3.5v470.6z" class="e"/><path d="M-13.1 537.3q1.5 1.2 3.1 2.5c10.5 9.5 20 19.6 29.7 30.1 3.9 4.2 7.7 8.7 11.9 12.6 8.2 7.6 19.7 12.1 29.9 14.9 20.2 5.7 42.8 3.6 63.4 2.9 32.4-1.1 65.9-4.5 98.3.4 32 4.9 58.3 23.9 86.5 40 11.9 6.9 25.4 12.9 38.9 13.3 11.7.4 24.1-1.8 35.7.2 11.2 1.9 21.1 9.7 27 20.4 6 11 10 25 19.6 33.2 16.8 14.4 39.4 5.7 58.7 10 25.3 5.7 48.5 19.6 73.9 24.5 25.8 4.9 52.5 2.9 78 9.4 11.8 2.9 21.8 9.1 32.8 14.3 6.2 2.9 13 5.9 19.6 7.5 6.6 1.5 13.2 1.3 19.9 1.9 11.9 1.1 24.4.3 36.1 3 10.8 2.4 22.1 3 32.2 8.1 18.8 9.6 37.2 19.4 56.4 27.8 20 8.6 41.8 15.7 60.2 28.1 16.5 11.1 34.3 15.4 51.7 23.7 9.2 4.3 17.5 7.7 25.5 14.3 5.9 4.9 12.7 10 19.8 12.2 8 2.5 16 1.2 24.2 1.5 8.4.3 16.9 2 24.7 5.3 20.5 8.4 42.4 13.1 63.5 19.1 10.8 3.1 22 4.8 33 7.7 8.1 2.1 16.1 4 24.3 6 7.1 1.7 13.7 5.3 20.9 6.6 11.8 2.3 23.8 3.8 35.7 6.2 10 2 20.1 3.7 30.3 4.5 8.9.6 16.4 6.3 25 8.7 4.2 1.2 11.5 1.3 16.9 3.2H-13.1z" style="fill:#0d0d0d"/><path d="M959 961.4c7.1-3.2 16.7-5.1 20.8-8.5 8.8-7 18.3-11.7 27.9-17.2l12.3-15.6c76 0 87.7 2.5 107.5-4.8 38-14.2 69-58.1 98.2-60.8 27.9-2.6 24.7 9.3 72-6.5 46.6-15.6 52.6-5.9 142.9-51.5 76.6-38.7 106-33.9 150.7-65C1754 618.1 1810.4 603.9 1904 515.7c13-12.1 107.5-86.5 157.8-120v565.7z" style="fill:#0c0a22"/><path d="M1000.5 774.1c0-1.9.7-3.5.9-5.4.3-1.9.4-3.8.8-5.7.6-3.3 1.1-6.7 1.9-10 .5-2.5.8-5.1 1.1-7.6.1-1.6.2-3.1.5-4.6.1-.6.3-1.2.2-1.9.5.9.4 2.1.6 3.1.4 2.1.8 4.1 1.3 6.2.3 1.8.4 3.5.7 5.3.1.9.3 1.7.5 2.5.3 1 .2 1.8.4 2.8.5 2.7 1.1 5.4 1.6 8.1.3 1.3.3 2.3.4 3.5 0 1.1.6 1.9.6 2.9-.5.2-1.4.1-2 .1zM1042.8 773.4c-.6-3.4-.1-6.6 0-9.9.2-3.5.3-7 .6-10.5.4-4.3 1-8.6 1.6-13 .3-2 .2-4.1.2-6.2 0-2 .4-3.8.8-5.8.1-.8.2-1.5.3-2.3.1-1 .7-2.3.6-3.3 0 .6.2 1.2.3 1.9.1 1.1.1 2.3.3 3.4.3 2.6.8 4.9 1.6 7.2.9 2.9 1.4 5.9 1.9 8.9s1.3 5.9 1.8 8.8c.4 2.2 1 4.3 1.3 6.6.2 2 .5 4 .9 6 .3 1.3.8 2.5 1.1 3.6.2.7.2 2.2.7 2.6zM1091 767.2c-.1-3.6.2-7.2.6-10.8.3-4.2.5-8.4.9-12.7l.6-4.8c.2-2 .7-3.9.9-5.8.1-1.6 0-3.1 0-4.6 0 1.1.2 2.2.3 3.2.3 2.2.3 4.4.7 6.5 1.1 4.5 2.4 8.9 3.3 13.4.5 2.9.8 5.8 1.4 8.7.2 1 .3 2.1.5 3.1.2.9.6 1.8.7 2.7zM1140.8 753.8c.1-3.4.8-6.9 1.4-10.2.7-4 .6-8.1 1.3-12.2.6-2.9 1.1-5.9 1.6-8.9.2-2 .6-4.2.5-6.3 1.3 3 1.2 6.9 1.9 10.1.4 2.2 1.3 4.1 1.9 6.3.5 2 .7 4 1.1 6.1.7 4.4 2.4 8.4 3.3 12.7-.5.1-.9.1-1.4.1zM974.9 779.4c.2-1.6 6.6-41 7.9-40.3.2.1.1.3 0 .4-.1 0-.1-.1-.1-.1-.8-1.1 4.7 30.5 6.5 39.7zM956.2 778.3c2-11.1 4-24.2 5.4-35.7 3.1 10.9 6.4 23.9 8.9 35.2z" class="e"/><path d="M964 777.7c2.9-8.2 5.8-18.4 8-27.6 2.4 8.7 4.7 19.3 6.3 29zM919.6 775c1.7-16.9 4.1-35.8 6.5-51.4 2.1 16.2 4.9 34.8 7.8 50.7z" class="e"/><path d="M933 778.5c1.1-11.6 3.1-24.7 5.3-35 2.2 10.5 5.5 22.8 9 33zM821.7 761.8l8.1-59.8 6.2 60.1z" class="e"/><path d="M834.1 757.5c1.7-10.4 4.1-22.4 6.5-32.4 2.2 10.1 5 21.7 7.8 31.5zM885.8 771.9l8.1-52.3 6.2 52.6z" class="e"/><path d="M896 772.1c1.6-8.8 3.7-18.9 5.9-27.4 2.4 8.4 5.5 18 8.4 26.1zM744.7 760.7l4.4-40.5 9.9 39.5z" class="e"/><path d="M754.9 761.3c1.7-10.2 4.1-21.8 6.5-31.6 2.1 9.9 5 21.1 7.8 30.6zM779.1 766.5c1.2-35 2.2-50.6 4.6-81.5 3.3 34 5.3 49.6 9.7 80.4zM729.6 755.1l5.9-41.3 8.4 40.5zM491.6 690.5c2.3-10.9 4.6-23.7 6.4-34.8 2.8 10.8 5.7 23.6 7.9 34.8z" class="e"/><path d="m505.5 690.3 7-48.2 7.3 48.1zM525.4 693.9c1.5-8.1 4.5-16.8 7.8-23.3 1.1 7.4 3.6 15.6 6.5 21.7zM538.7 710.4c1.1-15.5 2.9-34.2 5-50.7 2.5 15.5 5.9 33.7 9.3 49.5zM389.8 657.7l5.2-47.5 9.2 46.9z" class="e"/><path d="M401.9 662.9c.9-9.8 2.5-21.1 4.2-30.6 2.8 9.2 6.5 19.6 9.9 28.2zM332.3 643.4c1.2-12.8 3.1-27.6 5-40.2 2.6 12.5 6 26.7 9.3 38.8z" class="e"/><path d="M343.3 647.9c1.5-7.8 3.6-16.7 5.6-24.2 2.5 7.3 5.7 15.6 8.7 22.5zM544.5 714.1c1.9-13.6 5.3-29 8.9-41.1.7 12.7 2.7 28 5.4 40.6zM594 732.4c1.9-17.5 4.7-38 7.6-55.7 1.7 17.6 4.2 38 6.7 55.4z" class="e"/><path d="M602.7 729.5c1.4-11 4.3-23.3 7.6-32.7 1.1 10.4 3.7 22.1 6.7 31.3zM653.4 744.7c1.8-14.6 4.9-31.3 8.3-44.7 1.1 14.8 3.5 31.3 6.1 44.1z" class="e"/><path d="M664.5 749c2.6-11.5 5.3-25 7.1-36.9 2.7 11.6 5.3 25.4 7.2 37.5zM679.7 755c4.8-11.2 7.4-20.9 9.2-33.1 3.4 12.7 4.8 23.4 4.8 36.6zM1024.7 780.3l8-71.9 6.4 72.1zM1055.5 779.6c1.7-14.2 4.1-30.7 6.6-44.7 2 13.9 4.9 30.1 7.8 44zM1070.8 768.6c1.8-12.4 4.4-26.5 7.2-38.1 1.7 12.3 4.4 26 7.1 37.4z" class="e"/><path d="m1077.6 763.1 7.1-12.7 7.2 12.7zM1109.6 761.9c-1.1-9.5 2.6-11.9 7.6-37.7 4.9 23.7 3.6 30.4 6.1 33.2z" class="e"/><path d="m1122.4 761 7-34.2 7.3 34.4z" class="e"/><path d="M1130.5 756.8c1.8-12.8 4.3-27.4 6.9-39.8 1.9 12.6 4.7 27 7.5 39.1zM1161.4 749.4c2.1-10 4.2-22 5.6-32.4 3.1 9.9 6.3 21.7 8.7 32.1zM1188.7 742.3l6.9-38.5 7.5 38zM1215.5 735.1c-.8-19.1.4-33.3 3.1-49.2 2 15.2 4.8 28.6 10.9 45.8z" class="e"/><path d="M1225.7 727.4c-.4-13 .5-28.9 2.5-42.4 2.6 13.1 7 27.7 11.5 38.9zM1244.5 728.4l3.2-50 11.1 48.5zM1267.8 720.8c.8-12.5 2.6-28.2 5.1-42.5.8-4.6 1.4-7.7 1.4-7.7s.3 3.2.9 7.8c1.6 14.2 4.2 29.3 6.9 41.2z" class="e"/><path d="M1281.6 725c.4-15.6 1.5-33.8 2.9-49.4 3.1 15.2 7.3 32.6 11.3 47.2zM1309.8 743.1c2.5-27.4 4.1-40.2 7.7-64.7 2.1 27.2 3.5 40 6.6 64.3zM1323.1 728.6c1.1-11.6 2.9-24.7 5-35.5 2.5 11.2 5.9 23.5 9.2 33.6z" class="e"/><path d="M1336.7 728.4c1.3-9.1 3.7-20.3 6.4-30.1 2 9.7 5 20.3 7.9 28.6zM1373.7 726.3c.8-18.3 2.7-33.2 6.8-51.1 1.2 19.4 3.6 33.7 7.4 49.3z" class="e"/><path d="M1384.7 720.9c4.3-31 6.1-41.1 8.8-46.3-1.3 7.7 3.2 32.3 5.5 46z" class="e"/><path d="m1395.8 719.1 7.7-35.8 6.7 36.2zM1425.7 729.9c2.4-16.6 3.9-25.3 8.2-45.1 2 19.3 3.2 27.9 6.2 44.7z" class="e"/><path d="M1438.6 733c1.2-13.7 3.4-29.6 6-42.5 1.9 13.3 5 28.6 8.3 41z" class="e"/><path d="M1450.3 739.9c2.6-19.7 4.1-29.6 8.5-52 1.8 22.3 3 32.2 5.9 51.8z" class="e"/><path d="m1463.8 738.1 6.6-53.6 7.7 53.4zM1517.1 724.1c1.5-15 4.6-32.1 8.1-45.7.9 14.6 3.3 31.4 6.2 44.8zM1531.1 715.5c2.4-15 5.7-31.9 9.1-45.7 1.1 14.7 3 31.6 5.3 45.8zM1595.3 697.1c3.1-22.8 5-33.4 9.6-55.8 1.2 22.7 2.1 33.3 4.7 55.9zM1555.1 700.5c1.5-11.9 5-25.3 8.9-35.6.5 11.4 2.5 24.4 5.4 34.7zM1621.6 680.9c.7-18.4 3.2-39.4 6.5-56 1 16.7 3.9 37.1 7.8 54.5z" class="e"/><path d="M1605.9 685.3c4.2-18.2 6.5-26.6 11.7-43.4.4 17.4.9 26.2 2.6 44.5zM1679.1 665.9c1.9-14.3 5.1-31.8 8.8-46.5 1 15.1 3.1 32.4 5.6 46.2zM1739.2 626.6c3.1-14.1 7.3-30.2 11.3-43.8.5 14.3 1.6 30.8 3 44.9zM1761.2 614.3c2.1-11.2 4.2-24.4 5.7-35.8 3 11 6.2 24.1 8.7 35.6zM1801.8 596.7c3.2-10.6 7.4-25.7 11.3-35.8.6 11-.4 16.4.9 27.1z" class="e"/><path d="M87.9 621c-7.8-4.4-16.3-7.5-24.9-9.1-1.7-.3-3.5-.6-5.2-1.1 0 11-.6 22 0 33l-6.8.2c-.5 0-1.1 0-1.5-.4-.4-.4-.5-1.1-.5-1.8-.5-11.7.5-23.4.4-35.2-7.2 7-15.2 13.1-23.6 18.2q8.5-10.5 16.4-21.7c-6.6 7.4-14.5 13.4-23 17.6q4.5-6 9-12.1c-4.2 4-9.2 7-14.4 8.9 6.6-6.1 12.3-13.6 16.7-22-4.2 3.3-8.9 5.9-13.7 7.5q1.8-2.7 3.6-5.5-1.1.2-2.2.5 4.2-5.1 8.4-10.1c-2.7 2.6-5.9 4.5-9.3 5.6 5.6-5.3 10.3-11.7 13.9-18.7-3.5 4.7-8.5 8.1-13.9 9.4 7.5-7.7 13.6-17.2 17.7-27.7-2.2 3.1-5.1 5.5-8.5 6.7q2.7-5.6 5.3-11.1c-1.5 2.8-4 4.9-6.9 5.5 4.9-8.1 9.2-16.7 12.7-25.6q-.5-.1-.9-.1v-2.4c-1.9 4-4.8 7.2-8.3 9.2l4.4-10.4c-2 4.4-5.1 8.2-8.9 10.8 2.9-5.2 5.3-10.7 7.4-16.4-1.7 3-3.8 5.6-6.3 7.7 5.9-11.1 10.6-23 13.9-35.3-3.4 4-7.7 6.9-12.5 8.6 7.1-8.9 12.3-19.6 15.3-30.9-1.9 4.2-4.9 7.8-8.5 10.3 2-3.2 3.4-6.8 4.2-10.7-1.7 1.7-3.8 3-6.1 3.7 9.8-11.3 17-25.4 20.8-40.6 4.3 11.8 9.3 23.3 17.2 32.5-3.3-.7-6.5-2.6-8.9-5.3 2.7 5.5 6.3 10.4 10.5 14.4-3.1-.3-6.2-1.7-8.7-3.9q4.5 5.4 9 10.9c-2.9-.6-5.7-1.8-8-3.7 5.1 9 11.6 16.9 18.1 24.7-6-1.3-11.6-4.9-15.5-10.2q4.4 6.6 8.8 13.1c-2.5-.5-5-1.7-7-3.6q2.4 3.3 4.8 6.5c-2.9-.9-5.5-2.4-8-4.3q.1.1.1.2.7.7 1.3 1.5-.4-.1-.9-.1c3.1 9.7 7.7 18.7 13.6 26.6-3.5-1-6.7-2.7-9.6-5.1q4.1 5.5 8.2 11.1-3.4-2.3-6.9-4.6c2.9 6.7 6.9 12.7 11.8 17.7q-4-1.9-8-3.9 3.3 4.7 6.7 9.4c-2.7-.9-5.2-2.3-7.3-4.3q3 4.3 6 8.5-2.5-1-5-1.9c2.4 9.2 7.8 17.4 14.8 22.9-4-.2-7.9-2.4-10.5-5.9l9 14c-4-1.6-7.7-3.8-11.2-6.5q6.1 10.4 12.2 20.9-6-3.8-12-7.5L90.9 615l-8.6-3c2.8 2.1 4.9 5.4 5.6 9z" style="fill:url(#g1)"/><path d="M154.1 626.4c-7.9-4.4-16.3-7.5-25-9.2-1.7-.3-3.4-.6-5.1-1.1 0 11-.6 22-.1 33q-3.3.1-6.7.2c-.6.1-1.1.1-1.5-.3-.5-.4-.5-1.2-.6-1.8-.5-11.8.6-23.5.5-35.2-7.3 7-15.2 13.1-23.6 18.1q8.5-10.5 16.3-21.6c-6.6 7.4-14.4 13.3-23 17.5q4.6-6 9.1-12c-4.3 3.9-9.2 7-14.5 8.9 6.7-6.2 12.4-13.7 16.7-22-4.2 3.3-8.8 5.8-13.7 7.5q1.9-2.8 3.7-5.6-1.1.3-2.2.5 4.2-5 8.4-10.1c-2.7 2.6-5.9 4.6-9.3 5.6 5.5-5.2 10.3-11.6 13.9-18.7-3.6 4.8-8.6 8.2-14 9.4 7.6-7.7 13.6-17.2 17.7-27.7-2.1 3.1-5.1 5.5-8.4 6.7q2.6-5.5 5.2-11.1c-1.4 2.8-4 4.9-6.8 5.5 4.9-8 9.1-16.6 12.6-25.6q-.4 0-.8-.1 0-1.1-.1-2.3c-1.8 3.9-4.8 7.1-8.3 9.2q2.2-5.2 4.5-10.4c-2 4.4-5.2 8.2-8.9 10.7 2.8-5.2 5.3-10.7 7.3-16.3-1.6 2.9-3.7 5.5-6.2 7.6 5.8-11.1 10.5-22.9 13.9-35.3-3.4 4-7.8 7-12.5 8.6 7-8.9 12.3-19.5 15.3-30.9-2 4.2-4.9 7.9-8.5 10.4 1.9-3.3 3.4-6.9 4.2-10.7-1.8 1.7-3.9 3-6.1 3.7 9.8-11.4 17-25.5 20.8-40.7 4.3 11.8 9.3 23.4 17.2 32.6-3.4-.8-6.5-2.6-9-5.3 2.7 5.4 6.3 10.3 10.6 14.3-3.2-.3-6.3-1.7-8.8-3.9q4.5 5.5 9 10.9c-2.8-.5-5.6-1.8-8-3.7 5.1 9.1 11.7 16.9 18.2 24.7-6-1.2-11.6-4.9-15.6-10.1q4.5 6.5 8.9 13.1c-2.6-.5-5-1.8-7-3.6q2.3 3.2 4.7 6.5c-2.8-1-5.5-2.5-7.9-4.4q0 .1.1.2.6.8 1.3 1.5-.5 0-.9-.1c3 9.7 7.6 18.8 13.6 26.6-3.5-.9-6.8-2.7-9.6-5l8.2 11q-3.5-2.3-6.9-4.5c2.9 6.6 6.9 12.7 11.8 17.6q-4-1.9-8-3.9l6.6 9.4c-2.6-.8-5.1-2.3-7.2-4.3l6 8.6-5-2c2.4 9.2 7.7 17.5 14.8 22.9-4-.2-7.9-2.3-10.5-5.8q4.5 7 8.9 14c-3.9-1.6-7.7-3.8-11.1-6.6q6.1 10.5 12.2 20.9l-12-7.4 14.2 15.4q-4.3-1.6-8.6-3.1c2.8 2.1 4.8 5.4 5.6 9.1z" style="fill:url(#g2)"/><path d="M243.1 629.8c-6.7-3.7-13.9-6.3-21.2-7.7-1.5-.3-3-.5-4.4-1 0 9.4-.5 18.7 0 28.1q-2.9 0-5.8.1c-.4.1-.9.1-1.2-.3-.4-.3-.5-.9-.5-1.5-.4-10 .5-19.9.4-29.9-6.2 6-12.9 11.1-20.1 15.4q7.3-8.9 13.9-18.4c-5.6 6.3-12.3 11.4-19.5 14.9q3.8-5.1 7.7-10.2c-3.6 3.4-7.8 6-12.3 7.6 5.6-5.3 10.5-11.6 14.2-18.7-3.6 2.8-7.5 4.9-11.7 6.4q1.6-2.4 3.1-4.8-.9.3-1.8.5 3.5-4.3 7.1-8.6c-2.3 2.2-5 3.8-7.9 4.7 4.7-4.4 8.7-9.8 11.8-15.9-3 4.1-7.3 7-11.9 8 6.5-6.5 11.6-14.6 15.1-23.5-1.8 2.6-4.3 4.7-7.2 5.7q2.3-4.7 4.5-9.4c-1.3 2.3-3.4 4.1-5.8 4.6 4.1-6.8 7.7-14.1 10.7-21.7q-.4 0-.7-.1v-2c-1.6 3.3-4.1 6.1-7.1 7.8l3.8-8.8c-1.7 3.7-4.4 6.9-7.6 9.1 2.4-4.4 4.5-9 6.2-13.9-1.3 2.6-3.1 4.8-5.2 6.5 4.9-9.4 8.9-19.5 11.8-29.9-3 3.3-6.6 5.9-10.6 7.2 5.9-7.5 10.4-16.5 12.9-26.2-1.6 3.6-4.1 6.7-7.2 8.8 1.7-2.7 2.9-5.8 3.6-9.1-1.5 1.5-3.3 2.5-5.2 3.1 8.3-9.6 14.4-21.6 17.7-34.5 3.6 10.1 7.9 19.9 14.6 27.7-2.9-.7-5.6-2.2-7.6-4.5 2.3 4.6 5.3 8.8 8.9 12.2-2.7-.3-5.3-1.5-7.4-3.3q3.8 4.6 7.7 9.2c-2.5-.5-4.8-1.5-6.9-3.1 4.4 7.6 9.9 14.3 15.5 21-5.1-1.1-9.9-4.2-13.3-8.7l7.6 11.2c-2.2-.5-4.3-1.5-6-3.1q2 2.7 4.1 5.5c-2.4-.8-4.7-2.1-6.8-3.7q.1.1.1.2.5.6 1.1 1.3-.4-.1-.8-.1c2.6 8.2 6.5 15.9 11.6 22.6-3-.8-5.8-2.3-8.2-4.3l7 9.4q-2.9-2-5.9-3.9c2.5 5.7 5.9 10.8 10 15q-3.4-1.6-6.8-3.3 2.9 4 5.7 8c-2.2-.7-4.3-2-6.2-3.7q2.6 3.7 5.1 7.3-2.1-.9-4.2-1.7c2.1 7.8 6.6 14.8 12.6 19.4-3.4-.1-6.8-1.9-8.9-4.9q3.8 6 7.6 11.9c-3.4-1.4-6.6-3.2-9.5-5.6l10.4 17.8q-5.1-3.2-10.2-6.3l12 13q-3.6-1.3-7.3-2.6c2.4 1.8 4.1 4.6 4.8 7.7z" style="fill:url(#g3)"/><path d="M337.4 661.5c-6.7-3.8-13.9-6.4-21.2-7.8-1.5-.3-3-.5-4.4-.9 0 9.3-.5 18.6 0 28l-5.8.2c-.4 0-.9 0-1.2-.3-.4-.4-.5-1-.5-1.6-.4-9.9.5-19.9.4-29.9-6.2 6-12.9 11.2-20.1 15.5q7.2-9 13.9-18.5c-5.6 6.3-12.3 11.4-19.5 15q3.8-5.1 7.7-10.3c-3.6 3.4-7.8 6-12.3 7.6 5.6-5.2 10.5-11.6 14.2-18.7-3.6 2.8-7.5 5-11.7 6.4q1.6-2.4 3.1-4.7l-1.8.4q3.5-4.3 7.1-8.6c-2.3 2.2-5 3.9-7.9 4.8 4.7-4.5 8.7-9.9 11.8-15.9-3 4-7.3 6.9-11.9 7.9 6.5-6.5 11.6-14.6 15.1-23.5-1.8 2.7-4.3 4.7-7.2 5.7q2.3-4.7 4.5-9.4c-1.3 2.4-3.4 4.1-5.8 4.7 4.1-6.9 7.7-14.2 10.7-21.8h-.7v-2c-1.6 3.3-4.1 6-7.1 7.8q1.9-4.5 3.8-8.9c-1.7 3.8-4.4 7-7.6 9.2 2.4-4.5 4.5-9.1 6.2-13.9-1.3 2.5-3.1 4.7-5.2 6.5 4.9-9.5 8.9-19.5 11.8-30-3 3.4-6.6 5.9-10.6 7.3 5.9-7.6 10.4-16.6 12.9-26.3-1.6 3.6-4.2 6.7-7.2 8.8 1.7-2.7 2.9-5.8 3.6-9-1.5 1.4-3.3 2.5-5.2 3.1 8.3-9.6 14.4-21.6 17.7-34.5 3.6 10 7.9 19.8 14.6 27.6-2.9-.6-5.6-2.2-7.6-4.5 2.3 4.6 5.3 8.8 8.9 12.2-2.7-.3-5.3-1.4-7.4-3.3q3.8 4.6 7.7 9.2c-2.5-.4-4.8-1.5-6.9-3.1 4.4 7.7 9.9 14.4 15.5 21-5.1-1.1-9.9-4.2-13.3-8.6q3.8 5.5 7.6 11.1c-2.2-.4-4.3-1.5-6-3.1q2 2.8 4.1 5.5c-2.4-.8-4.7-2-6.8-3.7q.1.1.1.2.5.7 1.1 1.3-.4 0-.8-.1c2.6 8.2 6.5 16 11.6 22.6-3-.8-5.8-2.3-8.2-4.3l7 9.4q-2.9-1.9-5.9-3.9c2.5 5.7 5.9 10.8 10 15q-3.4-1.6-6.8-3.3 2.9 4 5.7 8c-2.2-.7-4.3-2-6.2-3.6q2.6 3.6 5.1 7.2-2.1-.8-4.2-1.7c2.1 7.9 6.6 14.9 12.6 19.5-3.4-.1-6.8-2-8.9-5q3.8 6 7.6 11.9c-3.4-1.3-6.6-3.2-9.5-5.5q5.2 8.8 10.4 17.7-5.1-3.2-10.2-6.3 6 6.5 12 13.1-3.6-1.3-7.3-2.6c2.4 1.7 4.1 4.6 4.8 7.7z" style="fill:url(#g4)"/><path d="M402.9 707.3c-6.7-3.7-13.8-6.4-21.2-7.7-1.4-.3-2.9-.6-4.4-1 0 9.3-.5 18.7 0 28l-5.8.2c-.4 0-.9 0-1.2-.3-.4-.3-.5-1-.5-1.5-.4-10 .5-20 .4-29.9-6.2 5.9-12.9 11.1-20.1 15.4q7.3-8.9 13.9-18.4c-5.6 6.3-12.2 11.4-19.5 14.9q3.9-5.1 7.7-10.2c-3.6 3.3-7.8 5.9-12.3 7.6 5.7-5.3 10.5-11.6 14.2-18.8-3.6 2.8-7.5 5-11.6 6.4q1.5-2.3 3.1-4.7-1 .2-1.9.4 3.6-4.3 7.1-8.6c-2.2 2.3-5 3.9-7.9 4.8 4.8-4.5 8.8-9.9 11.8-15.9-3 4.1-7.2 6.9-11.8 8 6.4-6.5 11.6-14.6 15-23.5-1.8 2.6-4.3 4.6-7.1 5.7q2.2-4.7 4.4-9.5c-1.2 2.4-3.4 4.2-5.8 4.7 4.2-6.8 7.8-14.1 10.7-21.7q-.3-.1-.7-.1v-2c-1.6 3.3-4.1 6.1-7.1 7.8l3.8-8.8c-1.7 3.7-4.4 6.9-7.6 9.1 2.5-4.4 4.6-9.1 6.3-13.9-1.4 2.5-3.2 4.7-5.3 6.5 4.9-9.4 8.9-19.5 11.8-30-2.9 3.4-6.6 5.9-10.6 7.3 5.9-7.5 10.4-16.6 13-26.2-1.7 3.6-4.2 6.6-7.3 8.8 1.7-2.8 2.9-5.9 3.6-9.1-1.5 1.4-3.3 2.5-5.2 3.1 8.3-9.6 14.5-21.6 17.7-34.5 3.6 10 7.9 19.9 14.6 27.6-2.8-.6-5.5-2.2-7.6-4.5 2.3 4.7 5.4 8.8 9 12.3-2.7-.3-5.3-1.5-7.5-3.4q3.9 4.7 7.7 9.3c-2.5-.5-4.8-1.6-6.8-3.2 4.3 7.7 9.9 14.4 15.4 21-5.1-1.1-9.8-4.2-13.2-8.6q3.7 5.6 7.5 11.1c-2.2-.4-4.3-1.5-6-3q2.1 2.7 4.1 5.5c-2.4-.8-4.7-2.1-6.7-3.7v.2q.6.6 1.1 1.2h-.7c2.6 8.2 6.5 15.9 11.5 22.6-2.9-.9-5.7-2.3-8.2-4.3q3.5 4.6 7 9.3l-5.8-3.8c2.4 5.6 5.8 10.8 10 15q-3.4-1.7-6.8-3.3l5.6 8c-2.2-.8-4.3-2-6.1-3.7q2.5 3.6 5.1 7.3-2.1-.9-4.3-1.7c2.1 7.8 6.6 14.8 12.6 19.4-3.4-.1-6.7-1.9-8.9-4.9q3.8 5.9 7.6 11.9c-3.4-1.4-6.6-3.3-9.5-5.6q5.2 8.9 10.4 17.7-5.1-3.1-10.2-6.3 6 6.6 12 13.1-3.6-1.3-7.3-2.6c2.4 1.8 4.1 4.6 4.8 7.7z" style="fill:url(#g5)"/><path d="M460.7 727c-6.7-3.8-13.9-6.4-21.3-7.8-1.4-.2-2.9-.5-4.3-.9 0 9.3-.5 18.7-.1 28q-2.8.1-5.7.2c-.5 0-.9 0-1.3-.3-.4-.4-.4-1-.4-1.6-.5-9.9.5-19.9.3-29.9-6.1 6-12.8 11.2-20 15.5q7.2-8.9 13.9-18.4c-5.6 6.2-12.3 11.3-19.6 14.9l7.8-10.2c-3.7 3.3-7.9 5.9-12.3 7.5 5.6-5.2 10.4-11.6 14.1-18.7-3.5 2.8-7.4 5-11.6 6.4q1.6-2.4 3.1-4.7l-1.8.4q3.5-4.3 7.1-8.6c-2.3 2.3-5 3.9-7.9 4.8 4.7-4.5 8.7-9.9 11.8-15.9-3 4.1-7.3 6.9-11.9 8 6.4-6.6 11.6-14.6 15.1-23.6-1.8 2.7-4.4 4.7-7.2 5.7q2.2-4.7 4.5-9.4c-1.3 2.4-3.5 4.2-5.9 4.7 4.2-6.9 7.8-14.2 10.8-21.8h-.7q-.1-1-.1-2c-1.6 3.3-4.1 6.1-7 7.8q1.8-4.4 3.7-8.9c-1.7 3.8-4.3 7-7.5 9.2 2.4-4.4 4.5-9.1 6.2-13.9-1.4 2.5-3.2 4.7-5.3 6.5 5-9.4 9-19.5 11.8-30-2.9 3.4-6.6 5.9-10.6 7.3 6-7.6 10.5-16.6 13-26.3-1.6 3.6-4.2 6.7-7.2 8.8 1.7-2.7 2.9-5.8 3.6-9-1.5 1.4-3.3 2.5-5.2 3.1 8.3-9.6 14.4-21.6 17.6-34.5 3.7 10 8 19.8 14.7 27.6-2.9-.6-5.6-2.2-7.6-4.5 2.2 4.6 5.3 8.8 8.9 12.2-2.7-.2-5.3-1.4-7.4-3.3l7.6 9.2c-2.4-.4-4.8-1.5-6.8-3.1 4.4 7.7 9.9 14.4 15.4 21-5.1-1.1-9.8-4.2-13.2-8.6q3.8 5.6 7.6 11.1c-2.2-.4-4.3-1.5-6-3.1l4 5.6c-2.4-.8-4.6-2.1-6.7-3.7l.1.1q.5.7 1.1 1.3-.4 0-.8-.1c2.6 8.3 6.5 16 11.5 22.6-2.9-.8-5.7-2.3-8.1-4.3l7 9.4q-2.9-1.9-5.9-3.8c2.5 5.6 5.9 10.7 10 15q-3.4-1.7-6.8-3.3 2.9 3.9 5.7 7.9c-2.3-.7-4.4-2-6.2-3.6q2.6 3.6 5.1 7.2-2.1-.8-4.2-1.7c2 7.9 6.6 14.9 12.6 19.5-3.5-.1-6.8-2-8.9-4.9l7.6 11.8c-3.4-1.3-6.6-3.2-9.5-5.5q5.2 8.8 10.3 17.7-5.1-3.1-10.2-6.3 6.1 6.6 12.1 13.1-3.7-1.3-7.3-2.6c2.4 1.8 4.1 4.6 4.8 7.7z" style="fill:url(#g6)"/><path d="M499.8 742.7c-6.6-3.8-13.8-6.4-21.2-7.8-1.4-.3-2.9-.5-4.3-1-.1 9.4-.5 18.7-.1 28.1q-2.8.1-5.7.2c-.5 0-.9 0-1.3-.3-.4-.4-.4-1-.4-1.6-.5-10 .4-19.9.3-29.9-6.1 6-12.9 11.2-20 15.5q7.2-9 13.9-18.5c-5.6 6.3-12.3 11.4-19.6 14.9q3.9-5.1 7.7-10.2c-3.6 3.4-7.8 6-12.2 7.6 5.6-5.2 10.4-11.6 14.1-18.7-3.5 2.8-7.5 4.9-11.6 6.4q1.6-2.4 3.1-4.7-.9.2-1.9.4l7.2-8.6c-2.3 2.2-5 3.9-7.9 4.7 4.7-4.4 8.7-9.8 11.8-15.8-3 4-7.3 6.9-11.9 7.9 6.4-6.5 11.6-14.6 15-23.5-1.7 2.7-4.3 4.7-7.1 5.7q2.2-4.7 4.5-9.4c-1.3 2.4-3.5 4.1-5.9 4.7 4.2-6.9 7.8-14.2 10.8-21.8q-.4 0-.8-.1v-2c-1.6 3.4-4.1 6.1-7.1 7.8l3.8-8.8c-1.7 3.8-4.3 7-7.5 9.1 2.4-4.4 4.5-9 6.2-13.8-1.4 2.5-3.2 4.7-5.3 6.5 5-9.5 9-19.6 11.8-30-2.9 3.4-6.6 5.9-10.6 7.2 6-7.5 10.4-16.5 13-26.2-1.6 3.6-4.2 6.7-7.2 8.8 1.6-2.7 2.9-5.8 3.6-9.1-1.5 1.5-3.3 2.6-5.2 3.2 8.3-9.7 14.4-21.6 17.6-34.6 3.7 10.1 7.9 19.9 14.6 27.7-2.8-.6-5.5-2.2-7.6-4.5 2.3 4.6 5.4 8.8 9 12.2-2.7-.3-5.3-1.4-7.4-3.3l7.6 9.2c-2.4-.4-4.8-1.5-6.8-3.1 4.3 7.7 9.9 14.3 15.4 21-5.1-1.1-9.8-4.2-13.2-8.6q3.8 5.5 7.5 11.1c-2.1-.4-4.2-1.5-5.9-3.1q2 2.8 4 5.5c-2.4-.8-4.7-2-6.7-3.7v.2q.6.6 1.2 1.3-.4-.1-.8-.1c2.6 8.2 6.5 15.9 11.5 22.6-2.9-.8-5.7-2.3-8.1-4.3l7 9.4q-3-2-5.9-3.9c2.5 5.7 5.9 10.8 10 15q-3.4-1.6-6.8-3.3 2.9 4 5.7 8c-2.3-.7-4.4-2-6.2-3.7q2.6 3.7 5.1 7.3-2.1-.8-4.2-1.7c2 7.9 6.6 14.8 12.6 19.5-3.5-.2-6.8-2-9-5q3.8 6 7.6 11.9c-3.3-1.3-6.5-3.2-9.4-5.6q5.2 8.9 10.3 17.8-5.1-3.2-10.2-6.3 6.1 6.5 12.1 13-3.7-1.2-7.3-2.5c2.3 1.7 4.1 4.5 4.7 7.7z" style="fill:url(#g7)"/><path d="M603.1 751.2c-6.6-3.8-13.8-6.4-21.2-7.8-1.4-.2-2.9-.5-4.3-.9-.1 9.3-.5 18.7-.1 28q-2.8.1-5.7.2c-.5 0-.9 0-1.3-.3-.4-.4-.4-1-.4-1.6-.5-9.9.4-19.9.3-29.9-6.1 6-12.9 11.2-20 15.5q7.2-8.9 13.9-18.4c-5.6 6.2-12.3 11.3-19.6 14.9q3.9-5.1 7.7-10.2c-3.6 3.3-7.8 5.9-12.2 7.5 5.6-5.2 10.4-11.6 14.1-18.7-3.5 2.8-7.5 5-11.6 6.4q1.5-2.4 3.1-4.7-.9.2-1.9.4 3.6-4.3 7.1-8.6c-2.2 2.3-4.9 3.9-7.8 4.8 4.7-4.5 8.7-9.9 11.8-15.9-3 4-7.3 6.9-11.9 8 6.4-6.6 11.6-14.6 15-23.6-1.7 2.7-4.3 4.7-7.1 5.7q2.2-4.7 4.5-9.4c-1.3 2.4-3.5 4.2-5.9 4.7 4.2-6.9 7.8-14.2 10.8-21.8h-.8v-2c-1.6 3.3-4.1 6-7.1 7.8q1.9-4.4 3.8-8.9c-1.7 3.8-4.3 7-7.5 9.2 2.4-4.4 4.5-9.1 6.2-13.9-1.4 2.5-3.2 4.7-5.3 6.5 5-9.4 9-19.5 11.8-30-2.9 3.4-6.6 5.9-10.6 7.3 6-7.6 10.4-16.6 13-26.3-1.7 3.6-4.2 6.7-7.2 8.8 1.6-2.7 2.9-5.8 3.6-9-1.5 1.4-3.3 2.5-5.2 3.1 8.3-9.6 14.4-21.6 17.6-34.5 3.7 10 7.9 19.8 14.6 27.6-2.8-.6-5.5-2.2-7.6-4.5 2.3 4.6 5.4 8.8 9 12.2-2.7-.2-5.3-1.4-7.4-3.3l7.6 9.2c-2.4-.4-4.8-1.5-6.8-3.1 4.3 7.7 9.9 14.4 15.4 21-5.1-1.1-9.8-4.2-13.2-8.6q3.8 5.5 7.5 11.1c-2.1-.4-4.2-1.5-5.9-3.1l4 5.6c-2.4-.8-4.7-2.1-6.7-3.7v.1q.6.7 1.2 1.3-.4 0-.8-.1c2.6 8.3 6.5 16 11.5 22.6-2.9-.8-5.7-2.3-8.1-4.3l7 9.4q-3-1.9-5.9-3.9c2.5 5.7 5.9 10.8 10 15.1l-6.8-3.4q2.8 4 5.7 8c-2.3-.7-4.4-2-6.2-3.6q2.6 3.6 5.1 7.2-2.1-.8-4.2-1.7c2 7.9 6.5 14.9 12.5 19.5-3.4-.1-6.7-2-8.9-4.9l7.6 11.8c-3.3-1.3-6.5-3.2-9.4-5.5q5.2 8.8 10.3 17.7-5.1-3.1-10.2-6.3 6.1 6.5 12.1 13.1-3.7-1.3-7.3-2.6c2.3 1.8 4.1 4.6 4.7 7.7z" style="fill:url(#g8)"/><path d="M662.3 785.6c-6.7-3.8-13.8-6.4-21.2-7.8-1.4-.3-2.9-.5-4.4-.9 0 9.3-.5 18.6 0 28l-5.8.2c-.4 0-.9 0-1.2-.3-.4-.4-.4-1-.5-1.6-.4-9.9.5-19.9.4-29.9-6.1 6-12.9 11.2-20.1 15.5q7.3-9 13.9-18.5c-5.6 6.3-12.2 11.4-19.5 15q3.9-5.1 7.7-10.3c-3.6 3.4-7.8 6-12.3 7.6 5.7-5.2 10.5-11.6 14.2-18.7-3.5 2.8-7.5 5-11.6 6.4q1.5-2.4 3.1-4.7-1 .2-1.9.4 3.6-4.3 7.1-8.6c-2.2 2.2-4.9 3.9-7.8 4.8 4.7-4.5 8.7-9.9 11.7-15.9-3 4-7.2 6.9-11.8 7.9 6.4-6.5 11.6-14.6 15-23.5-1.8 2.7-4.3 4.7-7.1 5.7l4.4-9.4c-1.2 2.4-3.4 4.1-5.8 4.7 4.2-6.9 7.8-14.2 10.7-21.8h-.7v-2c-1.6 3.3-4.1 6-7.1 7.8q1.9-4.5 3.8-8.9c-1.7 3.8-4.4 7-7.6 9.2 2.5-4.5 4.6-9.1 6.3-13.9-1.4 2.5-3.2 4.7-5.3 6.5 5-9.4 8.9-19.5 11.8-30-2.9 3.4-6.6 5.9-10.6 7.3 6-7.6 10.4-16.6 13-26.3-1.7 3.6-4.2 6.7-7.3 8.8 1.7-2.7 3-5.8 3.6-9-1.5 1.4-3.3 2.5-5.2 3.1 8.3-9.6 14.5-21.6 17.7-34.5 3.7 10 7.9 19.8 14.6 27.6-2.8-.6-5.5-2.2-7.6-4.5 2.3 4.6 5.4 8.8 9 12.2-2.7-.3-5.3-1.4-7.5-3.3q3.9 4.6 7.7 9.2c-2.4-.4-4.8-1.5-6.8-3.1 4.3 7.7 9.9 14.4 15.4 21-5.1-1.1-9.8-4.2-13.2-8.6q3.8 5.5 7.5 11.1c-2.2-.4-4.2-1.5-5.9-3.1q2 2.8 4 5.5c-2.4-.8-4.7-2-6.7-3.7v.2q.6.7 1.1 1.3-.3 0-.7-.1c2.6 8.2 6.5 16 11.5 22.6-2.9-.8-5.7-2.3-8.2-4.3l7 9.4q-2.9-1.9-5.8-3.9c2.4 5.7 5.8 10.8 10 15q-3.4-1.6-6.8-3.3 2.8 4 5.7 8c-2.3-.7-4.4-2-6.2-3.6q2.5 3.6 5.1 7.2-2.1-.8-4.3-1.7c2.1 7.9 6.6 14.9 12.6 19.5-3.4-.1-6.7-2-8.9-5q3.8 6 7.6 11.9c-3.3-1.3-6.5-3.2-9.4-5.5q5.1 8.8 10.3 17.7-5.1-3.2-10.2-6.3 6 6.5 12.1 13.1l-7.4-2.6c2.4 1.8 4.2 4.6 4.8 7.7z" style="fill:url(#g9)"/><path d="M744.5 796.6c-6.6-3.7-13.8-6.4-21.2-7.7-1.4-.3-2.9-.6-4.3-1-.1 9.3-.5 18.7-.1 28q-2.9.1-5.7.2c-.5 0-1 0-1.3-.3-.4-.3-.4-1-.5-1.5-.4-10 .5-20 .4-29.9-6.1 5.9-12.9 11.1-20 15.4q7.2-8.9 13.8-18.4c-5.6 6.3-12.2 11.4-19.5 14.9q3.9-5.1 7.7-10.2c-3.6 3.3-7.8 5.9-12.3 7.5 5.7-5.2 10.5-11.6 14.2-18.7-3.5 2.8-7.5 5-11.6 6.4q1.5-2.3 3.1-4.7-.9.2-1.9.4 3.6-4.3 7.1-8.6c-2.2 2.3-4.9 3.9-7.8 4.8 4.7-4.5 8.7-9.9 11.7-15.9-2.9 4.1-7.2 6.9-11.8 8 6.4-6.5 11.6-14.6 15-23.5-1.8 2.6-4.3 4.6-7.1 5.7q2.2-4.8 4.4-9.5c-1.2 2.4-3.4 4.2-5.8 4.7 4.2-6.8 7.8-14.1 10.7-21.8h-.7v-2c-1.6 3.3-4.1 6.1-7.1 7.8l3.8-8.8c-1.7 3.7-4.3 6.9-7.6 9.1 2.5-4.4 4.6-9.1 6.3-13.9-1.4 2.5-3.2 4.7-5.3 6.5 5-9.4 8.9-19.5 11.8-30-2.9 3.4-6.6 5.9-10.6 7.3 6-7.5 10.4-16.6 13-26.2-1.7 3.6-4.2 6.6-7.3 8.8 1.7-2.8 3-5.9 3.6-9.1-1.5 1.4-3.2 2.5-5.2 3.1 8.3-9.6 14.5-21.6 17.7-34.5 3.7 10 7.9 19.8 14.6 27.6-2.8-.6-5.5-2.2-7.6-4.5 2.3 4.7 5.4 8.8 9 12.3-2.7-.3-5.3-1.5-7.4-3.4q3.8 4.6 7.6 9.3c-2.4-.5-4.8-1.6-6.8-3.2 4.3 7.7 9.9 14.4 15.4 21-5.1-1.1-9.8-4.2-13.2-8.6q3.8 5.6 7.5 11.1c-2.2-.4-4.2-1.5-5.9-3q2 2.7 4 5.5c-2.4-.8-4.7-2.1-6.7-3.7v.2l1.2 1.2q-.4 0-.8-.1c2.6 8.3 6.5 16 11.5 22.6-2.9-.8-5.7-2.2-8.1-4.3l7 9.4q-3-1.9-5.9-3.8c2.4 5.6 5.9 10.8 10 15q-3.4-1.7-6.8-3.3 2.8 4 5.7 8c-2.3-.8-4.4-2-6.2-3.7q2.5 3.6 5.1 7.3-2.1-.9-4.2-1.7c2 7.8 6.5 14.8 12.5 19.4-3.4-.1-6.7-2-8.9-4.9q3.8 5.9 7.6 11.9c-3.3-1.4-6.5-3.3-9.4-5.6q5.1 8.9 10.3 17.7-5.1-3.1-10.2-6.3 6 6.6 12.1 13.1-3.7-1.3-7.3-2.6c2.3 1.8 4.1 4.6 4.7 7.7z" style="fill:url(#g10)"/><path d="M959.5 886.5c-4.4-2.5-9.1-4.2-13.9-5.1-.9-.2-1.9-.4-2.9-.7 0 6.2-.3 12.3 0 18.5q-1.9 0-3.8.1c-.3 0-.6 0-.8-.2-.2-.2-.3-.7-.3-1-.3-6.6.3-13.1.2-19.7-4 3.9-8.4 7.4-13.1 10.2q4.7-5.9 9.1-12.1c-3.7 4.1-8.1 7.4-12.8 9.8q2.5-3.4 5-6.7c-2.3 2.2-5.1 3.9-8 4.9 3.7-3.4 6.8-7.6 9.3-12.3-2.4 1.9-4.9 3.3-7.7 4.2q1.1-1.5 2.1-3.1-.6.2-1.2.3l4.6-5.6c-1.5 1.4-3.2 2.5-5.2 3.1 3.1-2.9 5.8-6.5 7.8-10.4-2 2.6-4.8 4.5-7.8 5.2 4.2-4.3 7.6-9.6 9.9-15.5-1.2 1.8-2.9 3.1-4.7 3.8q1.4-3.1 2.9-6.2c-.8 1.6-2.2 2.7-3.8 3.1 2.7-4.5 5.1-9.3 7-14.3q-.2 0-.4-.1 0-.6-.1-1.3c-1 2.2-2.6 4-4.6 5.1q1.2-2.9 2.5-5.8c-1.1 2.5-2.9 4.6-5 6q2.4-4.3 4.1-9.1c-.9 1.7-2.1 3.1-3.5 4.3 3.3-6.2 5.9-12.8 7.8-19.7-1.9 2.2-4.3 3.9-7 4.8 3.9-5 6.9-10.9 8.6-17.3-1.1 2.4-2.8 4.4-4.8 5.8 1.1-1.8 1.9-3.8 2.4-5.9-1 .9-2.2 1.6-3.4 2 5.4-6.3 9.4-14.2 11.6-22.6 2.4 6.5 5.2 13 9.6 18.1-1.9-.4-3.7-1.5-5-3 1.5 3.1 3.5 5.8 5.8 8.1-1.7-.2-3.4-1-4.8-2.2q2.5 3 5 6.1c-1.6-.3-3.2-1.1-4.5-2.1 2.9 5 6.5 9.4 10.1 13.8-3.3-.7-6.4-2.8-8.6-5.7q2.4 3.7 4.9 7.3c-1.4-.2-2.8-.9-3.9-2q1.3 1.8 2.7 3.6c-1.6-.5-3.1-1.3-4.5-2.4q0 .1.1.1.3.4.7.9-.2-.1-.5-.1c1.7 5.4 4.3 10.5 7.6 14.9-2-.6-3.8-1.6-5.4-2.9l4.6 6.2q-1.9-1.3-3.8-2.5c1.6 3.7 3.8 7 6.5 9.8l-4.4-2.2q1.8 2.7 3.7 5.3c-1.5-.5-2.9-1.3-4.1-2.4l3.4 4.8-2.8-1.2c1.3 5.2 4.3 9.8 8.3 12.8-2.3-.1-4.5-1.3-5.9-3.2l5 7.8c-2.2-.9-4.3-2.1-6.2-3.7q3.4 5.8 6.8 11.7-3.4-2.1-6.7-4.2 3.9 4.3 7.9 8.6-2.4-.8-4.8-1.7c1.6 1.2 2.7 3 3.1 5.1z" style="fill:url(#g11)"/><path d="M823.5 814.9c-4.3-2.5-9.1-4.2-13.9-5.1-.9-.2-1.9-.3-2.9-.6 0 6.1-.3 12.2 0 18.4q-1.9 0-3.8.1c-.3 0-.6 0-.8-.2-.2-.2-.3-.6-.3-1-.3-6.6.3-13.1.3-19.7-4.1 4-8.5 7.4-13.2 10.2q4.7-5.9 9.1-12.1c-3.7 4.1-8.1 7.5-12.8 9.8q2.5-3.4 5-6.7c-2.3 2.2-5.1 3.9-8 4.9 3.7-3.4 6.8-7.6 9.3-12.2-2.4 1.8-4.9 3.2-7.7 4.2q1.1-1.6 2.1-3.1l-1.2.2 4.6-5.6c-1.5 1.5-3.2 2.5-5.1 3.1 3-2.9 5.7-6.5 7.7-10.4-2 2.6-4.8 4.5-7.8 5.2 4.2-4.3 7.6-9.6 9.9-15.4-1.2 1.7-2.9 3-4.7 3.7q1.5-3.1 2.9-6.2c-.8 1.6-2.2 2.7-3.8 3.1 2.7-4.5 5.1-9.3 7-14.3h-.4q0-.7-.1-1.4c-1 2.2-2.6 4-4.6 5.2q1.2-2.9 2.5-5.8c-1.1 2.4-2.9 4.5-5 6q2.4-4.4 4.1-9.2c-.9 1.7-2.1 3.2-3.5 4.3 3.3-6.2 5.9-12.8 7.8-19.7-1.9 2.2-4.3 3.9-7 4.8 4-5 6.9-10.9 8.6-17.2-1.1 2.3-2.8 4.4-4.8 5.7 1.1-1.8 1.9-3.8 2.4-5.9-1 .9-2.2 1.6-3.4 2 5.4-6.3 9.4-14.1 11.6-22.6 2.4 6.6 5.2 13 9.6 18.1-1.9-.4-3.7-1.4-5-2.9 1.5 3 3.5 5.7 5.8 8-1.7-.2-3.4-1-4.8-2.2q2.5 3 5 6.1c-1.6-.3-3.1-1-4.5-2.1 2.9 5.1 6.5 9.4 10.1 13.8-3.3-.7-6.4-2.7-8.6-5.7q2.4 3.7 4.9 7.4c-1.4-.3-2.8-1-3.9-2.1q1.3 1.8 2.7 3.7c-1.6-.6-3.1-1.4-4.5-2.5l.1.1q.3.5.7.9-.2 0-.5-.1c1.7 5.4 4.3 10.5 7.6 14.9-2-.6-3.8-1.5-5.4-2.9l4.6 6.2q-1.9-1.3-3.8-2.5c1.6 3.7 3.8 7.1 6.5 9.8q-2.2-1.1-4.4-2.1 1.8 2.6 3.7 5.2c-1.5-.5-2.9-1.3-4.1-2.4l3.4 4.8q-1.4-.6-2.8-1.1c1.4 5.1 4.3 9.7 8.3 12.7-2.3 0-4.5-1.3-5.9-3.2l5 7.8c-2.2-.9-4.3-2.1-6.2-3.7q3.4 5.9 6.8 11.7-3.4-2.1-6.7-4.1 3.9 4.2 7.9 8.5-2.4-.8-4.8-1.7c1.6 1.2 2.7 3.1 3.1 5.1z" style="fill:url(#g12)"/><path d="M878 828.3c-4.4-2.5-9.1-4.2-13.9-5.1-1-.2-1.9-.3-2.9-.6 0 6.1-.3 12.3 0 18.4q-1.9.1-3.8.1c-.3 0-.6 0-.8-.2-.3-.2-.3-.6-.3-1-.3-6.5.3-13.1.2-19.6-4 3.9-8.4 7.3-13.1 10.1q4.7-5.9 9.1-12.1c-3.7 4.1-8.1 7.5-12.8 9.8q2.5-3.4 5-6.7c-2.4 2.2-5.1 3.9-8 5 3.7-3.5 6.8-7.7 9.3-12.3-2.4 1.8-5 3.2-7.7 4.2q1-1.6 2.1-3.1-.6.1-1.3.3 2.4-2.9 4.7-5.7c-1.5 1.5-3.3 2.5-5.2 3.1 3.1-2.9 5.8-6.5 7.8-10.4-2 2.7-4.8 4.5-7.8 5.2 4.2-4.3 7.6-9.6 9.9-15.4-1.2 1.7-2.9 3-4.7 3.7q1.4-3.1 2.9-6.2c-.8 1.6-2.2 2.8-3.8 3.1 2.7-4.5 5.1-9.3 7-14.3h-.4q-.1-.7-.1-1.3c-1 2.1-2.6 4-4.6 5.1q1.2-2.9 2.5-5.8c-1.1 2.4-2.9 4.6-5 6q2.4-4.4 4.1-9.1c-.9 1.6-2.1 3.1-3.5 4.2 3.3-6.2 5.9-12.8 7.8-19.7-1.9 2.3-4.3 3.9-7 4.8 3.9-4.9 6.9-10.9 8.6-17.2-1.1 2.3-2.8 4.4-4.8 5.8 1.1-1.8 1.9-3.9 2.4-6-1 1-2.2 1.7-3.5 2.1 5.5-6.4 9.5-14.2 11.7-22.7 2.4 6.6 5.2 13 9.6 18.1-1.9-.4-3.7-1.4-5-2.9 1.5 3 3.5 5.8 5.8 8-1.7-.2-3.4-.9-4.8-2.2q2.5 3.1 5 6.1c-1.6-.3-3.2-1-4.5-2.1 2.9 5.1 6.5 9.5 10.1 13.8-3.3-.7-6.4-2.7-8.6-5.6q2.4 3.6 4.9 7.3c-1.4-.3-2.8-1-3.9-2.1q1.3 1.9 2.7 3.7c-1.6-.6-3.1-1.4-4.5-2.5q0 .1.1.2.3.4.7.8-.2 0-.5-.1c1.7 5.5 4.3 10.5 7.6 14.9-2-.6-3.8-1.5-5.4-2.8q2.3 3 4.6 6.1-1.9-1.2-3.8-2.5c1.6 3.7 3.8 7.1 6.5 9.8q-2.2-1-4.4-2.1 1.8 2.6 3.7 5.2c-1.5-.5-2.9-1.3-4.1-2.4l3.4 4.8q-1.4-.6-2.8-1.1c1.3 5.1 4.3 9.7 8.3 12.8-2.3-.1-4.5-1.3-5.9-3.3l5 7.8c-2.2-.9-4.3-2.1-6.2-3.6l6.8 11.6q-3.4-2.1-6.7-4.1 3.9 4.3 7.9 8.6l-4.8-1.8c1.6 1.2 2.7 3.1 3.1 5.1z" style="fill:url(#g13)"/><path d="m1974.6 485.8-7.4 2.6q6.1-6.5 12.1-13.1-5.1 3.2-10.2 6.3 5.2-8.8 10.4-17.7c-3 2.3-6.1 4.2-9.5 5.6q3.8-6 7.6-11.9c-2.2 2.9-5.5 4.8-8.9 4.9 6-4.6 10.5-11.6 12.6-19.4q-2.2.8-4.3 1.6 2.6-3.6 5.1-7.2c-1.8 1.7-3.9 2.9-6.2 3.6q2.9-3.9 5.7-7.9-3.4 1.6-6.8 3.3c4.2-4.3 7.6-9.4 10-15l-5.8 3.8 7-9.4c-2.5 2-5.3 3.5-8.2 4.3 5-6.6 8.9-14.3 11.5-22.6q-.4.1-.7.1.5-.6 1.1-1.3v-.1c-2 1.6-4.3 2.9-6.7 3.7q2-2.8 4.1-5.6c-1.7 1.6-3.8 2.7-6 3.1q3.8-5.5 7.5-11.1c-3.4 4.4-8.1 7.5-13.2 8.6 5.5-6.6 11.1-13.3 15.4-21-2 1.6-4.4 2.7-6.8 3.1q3.8-4.6 7.7-9.2c-2.2 1.9-4.8 3.1-7.5 3.3 3.6-3.4 6.7-7.5 9-12.2-2.1 2.3-4.8 3.9-7.6 4.5 6.7-7.8 11-17.6 14.6-27.6 3.2 12.9 9.4 24.9 17.7 34.5-1.9-.6-3.7-1.7-5.2-3.1.7 3.2 1.9 6.3 3.6 9-3.1-2.1-5.6-5.2-7.3-8.8 2.6 9.7 7.1 18.7 13 26.3-4-1.4-7.7-3.9-10.6-7.3 2.9 10.5 6.9 20.6 11.8 30-2.1-1.8-3.9-4-5.3-6.5 1.7 4.8 3.8 9.5 6.3 13.9-3.2-2.2-5.9-5.4-7.6-9.2q1.9 4.5 3.8 8.9c-3-1.7-5.5-4.5-7.1-7.8v2h-.7c2.9 7.6 6.5 14.9 10.7 21.8-2.4-.5-4.6-2.3-5.8-4.7q2.2 4.7 4.4 9.5c-2.8-1.1-5.3-3.1-7.1-5.8 3.4 9 8.6 17 15 23.6-4.6-1.1-8.8-3.9-11.8-8 3 6 7 11.4 11.8 15.9-2.9-.9-5.7-2.5-7.9-4.8q3.5 4.3 7.1 8.6-.9-.2-1.9-.4 1.6 2.4 3.1 4.7c-4.1-1.4-8.1-3.6-11.6-6.4 3.7 7.1 8.5 13.5 14.2 18.7-4.5-1.6-8.7-4.2-12.3-7.5q3.8 5.1 7.7 10.2c-7.3-3.6-13.9-8.6-19.5-14.9q6.6 9.5 13.9 18.4c-7.2-4.3-13.9-9.5-20.1-15.5-.1 10 .8 20 .4 29.9 0 .6-.1 1.2-.5 1.6-.3.3-.8.3-1.2.3l-5.8-.2c.5-9.3 0-18.7 0-28-1.5.4-3 .7-4.4.9-7.4 1.4-14.5 4.1-21.2 7.8.7-3.1 2.4-5.9 4.8-7.7z" style="fill:url(#g14)"/><path d="M1880.3 540.5q-3.7 1.3-7.3 2.6l12-13q-5.1 3.1-10.2 6.3l10.4-17.8c-2.9 2.4-6.1 4.2-9.5 5.6q3.8-5.9 7.6-11.9c-2.2 3-5.5 4.8-8.9 5 6-4.7 10.5-11.7 12.6-19.5q-2.2.8-4.3 1.7 2.6-3.6 5.1-7.3c-1.8 1.7-3.9 3-6.1 3.7l5.6-8q-3.4 1.7-6.8 3.3c4.2-4.2 7.6-9.3 10-15q-2.9 1.9-5.8 3.9l7-9.4c-2.5 2-5.3 3.5-8.2 4.3 5-6.7 8.9-14.4 11.5-22.6q-.4 0-.7.1.5-.7 1.1-1.3v-.2c-2 1.6-4.3 2.9-6.7 3.7q2-2.8 4.1-5.5c-1.7 1.6-3.8 2.6-6 3.1q3.8-5.6 7.5-11.2c-3.4 4.5-8.1 7.6-13.2 8.7 5.5-6.7 11.1-13.4 15.4-21-2 1.6-4.3 2.6-6.8 3.1q3.8-4.6 7.7-9.2c-2.2 1.8-4.8 3-7.5 3.3 3.6-3.4 6.7-7.6 9-12.2-2.1 2.3-4.8 3.8-7.6 4.5 6.7-7.8 11-17.6 14.6-27.7 3.2 12.9 9.4 24.9 17.7 34.6-1.9-.7-3.7-1.7-5.2-3.2.7 3.3 1.9 6.4 3.6 9.1-3.1-2.1-5.6-5.2-7.3-8.8 2.6 9.7 7.1 18.7 13 26.2-4-1.3-7.7-3.9-10.6-7.2 2.9 10.4 6.9 20.5 11.8 29.9-2.1-1.7-3.9-3.9-5.3-6.5 1.7 4.9 3.8 9.5 6.3 13.9-3.2-2.2-5.9-5.4-7.6-9.1l3.8 8.8c-3-1.7-5.5-4.5-7.1-7.8v2q-.4.1-.7.1c2.9 7.6 6.5 14.9 10.7 21.7-2.4-.5-4.6-2.3-5.8-4.6l4.4 9.4c-2.8-1-5.3-3.1-7.1-5.7 3.4 8.9 8.6 17 15 23.5-4.6-1-8.8-3.9-11.8-8 3 6.1 7 11.5 11.8 15.9-2.9-.9-5.7-2.5-7.9-4.7q3.5 4.3 7.1 8.6-.9-.2-1.9-.5 1.6 2.4 3.1 4.8c-4.1-1.5-8-3.6-11.6-6.4 3.7 7.1 8.5 13.4 14.2 18.7-4.5-1.6-8.7-4.2-12.3-7.6q3.8 5.1 7.7 10.2c-7.3-3.5-13.9-8.6-19.5-14.9q6.6 9.5 13.9 18.4c-7.2-4.3-13.9-9.4-20.1-15.4-.1 10 .8 19.9.4 29.9 0 .6-.1 1.2-.5 1.5-.3.4-.8.4-1.2.3q-2.9 0-5.8-.1c.5-9.4 0-18.7 0-28.1-1.5.5-3 .7-4.4 1-7.4 1.4-14.5 4-21.2 7.7.7-3.1 2.4-5.9 4.8-7.7z" style="fill:url(#g15)"/><path d="M1814.7 607.1q-3.6 1.3-7.3 2.6 6.1-6.5 12.1-13-5.1 3.1-10.2 6.3 5.1-8.9 10.3-17.8c-2.9 2.4-6.1 4.2-9.4 5.6q3.8-5.9 7.6-11.9c-2.2 3-5.5 4.8-8.9 5 6-4.7 10.5-11.7 12.5-19.5q-2.1.8-4.2 1.7 2.5-3.6 5.1-7.3c-1.8 1.7-3.9 3-6.2 3.7q2.9-4 5.7-8-3.4 1.7-6.8 3.3c4.1-4.2 7.5-9.3 10-15q-2.9 1.9-5.9 3.9l7-9.4c-2.4 2-5.2 3.5-8.1 4.3 5-6.7 8.9-14.4 11.5-22.6q-.4 0-.8.1.6-.7 1.2-1.3v-.2c-2 1.6-4.3 2.9-6.7 3.7q2-2.8 4-5.5c-1.7 1.6-3.8 2.6-5.9 3.1q3.7-5.6 7.5-11.2c-3.4 4.5-8.1 7.6-13.2 8.7 5.5-6.7 11.1-13.4 15.4-21-2 1.6-4.4 2.6-6.8 3.1l7.6-9.2c-2.1 1.8-4.7 3-7.4 3.3 3.6-3.4 6.7-7.6 9-12.2-2.1 2.3-4.8 3.8-7.6 4.5 6.7-7.8 10.9-17.6 14.6-27.7 3.2 12.9 9.3 24.9 17.6 34.6-1.9-.7-3.7-1.7-5.2-3.2.7 3.3 2 6.4 3.6 9.1-3-2.1-5.5-5.2-7.2-8.8 2.6 9.7 7 18.7 13 26.2-4-1.3-7.7-3.9-10.6-7.2 2.8 10.4 6.8 20.5 11.8 29.9-2.1-1.7-3.9-3.9-5.3-6.5 1.7 4.9 3.8 9.5 6.2 13.9-3.2-2.1-5.8-5.4-7.5-9.1l3.8 8.8c-3-1.7-5.5-4.5-7.1-7.8v2q-.4.1-.8.1c3 7.6 6.6 14.9 10.8 21.7-2.4-.5-4.6-2.2-5.9-4.6q2.3 4.7 4.5 9.4c-2.8-1-5.3-3.1-7.1-5.7 3.4 8.9 8.6 17 15 23.5-4.6-1-8.9-3.9-11.9-8 3.1 6.1 7.1 11.5 11.8 15.9-2.9-.9-5.6-2.5-7.8-4.7q3.5 4.3 7.1 8.6-1-.2-1.9-.5 1.6 2.4 3.1 4.8c-4.1-1.5-8.1-3.6-11.6-6.4 3.7 7.1 8.5 13.4 14.2 18.7-4.5-1.6-8.7-4.2-12.3-7.6q3.8 5.1 7.7 10.2c-7.3-3.5-14-8.6-19.6-14.9q6.7 9.5 13.9 18.4c-7.1-4.3-13.9-9.4-20-15.4-.1 10 .8 19.9.3 29.9 0 .6 0 1.2-.4 1.5-.4.4-.8.4-1.3.4q-2.9-.1-5.7-.2c.4-9.4 0-18.7-.1-28.1-1.4.5-2.9.7-4.3 1-7.4 1.4-14.6 4-21.2 7.8.6-3.2 2.4-6 4.7-7.8z" style="fill:url(#g16)"/><path d="M1755.8 638.8q-3.7 1.3-7.3 2.6 6-6.6 12.1-13.1-5.2 3.1-10.3 6.3 5.2-8.9 10.4-17.7c-2.9 2.3-6.1 4.2-9.5 5.5q3.8-5.9 7.6-11.9c-2.1 3-5.5 4.9-8.9 5 6-4.6 10.5-11.6 12.6-19.5q-2.1.9-4.2 1.7 2.5-3.6 5.1-7.2c-1.8 1.6-4 2.9-6.2 3.6q2.8-4 5.7-8-3.4 1.7-6.8 3.3c4.1-4.2 7.5-9.3 10-15q-3 2-5.9 3.9l7-9.4c-2.4 2-5.2 3.5-8.2 4.3 5.1-6.6 9-14.4 11.6-22.6q-.4.1-.8.1.6-.6 1.1-1.3.1-.1.1-.2c-2.1 1.7-4.4 2.9-6.8 3.7q2.1-2.7 4.1-5.5c-1.7 1.6-3.8 2.7-6 3.1q3.8-5.6 7.6-11.1c-3.4 4.4-8.2 7.5-13.3 8.6 5.6-6.6 11.1-13.3 15.5-21-2.1 1.6-4.4 2.7-6.9 3.1q3.9-4.6 7.7-9.2c-2.1 1.9-4.7 3-7.4 3.3 3.6-3.4 6.6-7.6 8.9-12.2-2 2.3-4.7 3.9-7.6 4.5 6.7-7.8 11-17.6 14.6-27.6 3.3 12.9 9.4 24.9 17.7 34.5-1.9-.6-3.7-1.7-5.2-3.1.7 3.2 1.9 6.3 3.6 9-3-2.1-5.6-5.2-7.2-8.8 2.5 9.7 7 18.7 12.9 26.3-4-1.4-7.6-3.9-10.6-7.3 2.9 10.5 6.9 20.6 11.9 30-2.2-1.8-4-4-5.3-6.5 1.7 4.8 3.8 9.4 6.2 13.9-3.2-2.2-5.9-5.4-7.6-9.2q1.9 4.4 3.8 8.9c-3-1.8-5.5-4.5-7-7.8q-.1 1-.1 2h-.7c3 7.6 6.6 14.9 10.8 21.8-2.5-.6-4.6-2.3-5.9-4.7q2.2 4.7 4.5 9.4c-2.9-1-5.4-3-7.2-5.7 3.5 8.9 8.6 17 15.1 23.5-4.6-1-8.9-3.9-11.9-7.9 3.1 6 7.1 11.4 11.8 15.9-2.9-.9-5.6-2.6-7.9-4.8q3.6 4.3 7.1 8.6l-1.8-.4q1.5 2.3 3.1 4.7c-4.2-1.4-8.1-3.6-11.7-6.4 3.7 7.1 8.6 13.5 14.2 18.7-4.5-1.6-8.6-4.2-12.3-7.6q3.9 5.2 7.7 10.3c-7.2-3.6-13.9-8.7-19.5-15q6.7 9.5 13.9 18.5c-7.2-4.3-13.9-9.5-20.1-15.5-.1 10 .8 20 .4 29.9 0 .6-.1 1.2-.4 1.6-.4.3-.9.3-1.3.3l-5.8-.2c.5-9.4 0-18.7 0-28-1.4.4-2.9.6-4.4.9-7.3 1.4-14.5 4-21.2 7.8.7-3.1 2.4-5.9 4.8-7.7z" style="fill:url(#g17)"/><path d="M1685 661.2q-3.6 1.7-7.3 3.5 6-8.9 12.1-17.8l-10.2 8.6q5.1-12.1 10.3-24.2c-2.9 3.1-6.1 5.7-9.4 7.6q3.8-8.2 7.6-16.3c-2.2 4.1-5.5 6.6-9 6.8 6-6.3 10.6-15.9 12.6-26.6q-2.1 1.2-4.2 2.3 2.5-4.9 5.1-9.9c-1.8 2.3-3.9 4-6.2 5q2.9-5.4 5.7-10.9-3.4 2.3-6.8 4.5c4.1-5.7 7.5-12.7 10-20.5q-2.9 2.7-5.9 5.3l7-12.8c-2.4 2.7-5.2 4.7-8.1 5.9 5-9.1 8.9-19.6 11.5-30.9q-.4.1-.8.1.6-.8 1.2-1.7v-.2c-2 2.2-4.3 3.9-6.7 5q2-3.8 4-7.5c-1.7 2.1-3.8 3.6-5.9 4.2q3.7-7.6 7.5-15.2c-3.4 6-8.1 10.3-13.2 11.7 5.5-9 11.1-18.1 15.4-28.6-2 2.2-4.4 3.6-6.8 4.3l7.6-12.6c-2.1 2.5-4.7 4.1-7.4 4.5 3.6-4.7 6.7-10.4 9-16.7-2.1 3.1-4.8 5.3-7.6 6.2 6.7-10.7 10.9-24.1 14.6-37.8 3.2 17.7 9.3 34 17.6 47.2-1.9-.9-3.7-2.3-5.2-4.3.7 4.4 2 8.6 3.6 12.4-3-2.9-5.6-7.1-7.2-12 2.6 13.2 7 25.5 13 35.8-4-1.9-7.7-5.3-10.6-9.9 2.8 14.2 6.8 28 11.8 40.9-2.1-2.4-3.9-5.5-5.3-8.9 1.7 6.6 3.8 12.9 6.2 19-3.2-3-5.8-7.4-7.5-12.5l3.8 12c-3-2.3-5.5-6.1-7.1-10.6v2.7q-.4.1-.8.1c3 10.4 6.6 20.3 10.8 29.7-2.4-.7-4.6-3.1-5.9-6.4q2.3 6.5 4.5 12.9c-2.8-1.4-5.4-4.2-7.1-7.8 3.4 12.2 8.6 23.2 15 32.1-4.6-1.4-8.9-5.3-11.9-10.9 3.1 8.2 7.1 15.6 11.8 21.7-2.9-1.2-5.6-3.4-7.9-6.5l7.2 11.8q-1-.3-1.9-.6 1.5 3.2 3.1 6.4c-4.1-1.9-8.1-4.9-11.6-8.7 3.7 9.7 8.5 18.4 14.1 25.5-4.4-2.2-8.6-5.7-12.2-10.3q3.8 7 7.7 14c-7.3-4.9-14-11.8-19.6-20.4q6.7 13 13.9 25.1c-7.1-5.8-13.9-12.9-20-21-.1 13.6.8 27.2.3 40.8 0 .7 0 1.6-.4 2.1-.4.4-.8.4-1.3.4q-2.9-.1-5.7-.3c.4-12.7 0-25.5-.1-38.2-1.4.6-2.9.9-4.3 1.3-7.4 1.9-14.6 5.5-21.2 10.6.6-4.3 2.4-8.1 4.7-10.5z" style="fill:url(#g18)"/><path d="M1631.3 695.7q-3.6 1.3-7.3 2.6 6.1-6.5 12.1-13.1-5.1 3.2-10.2 6.3 5.2-8.8 10.3-17.7c-2.9 2.3-6.1 4.2-9.4 5.6q3.8-6 7.6-11.9c-2.2 2.9-5.5 4.8-8.9 4.9 6-4.6 10.5-11.6 12.5-19.4q-2.1.8-4.2 1.7 2.6-3.7 5.1-7.3c-1.8 1.7-3.9 2.9-6.2 3.7q2.9-4 5.7-8-3.4 1.6-6.8 3.3c4.1-4.3 7.6-9.4 10-15q-2.9 1.9-5.9 3.8l7-9.4c-2.4 2-5.2 3.5-8.1 4.3 5-6.6 8.9-14.3 11.5-22.6q-.4.1-.8.1.6-.6 1.2-1.3v-.1c-2 1.6-4.3 2.9-6.7 3.7l4-5.6c-1.7 1.6-3.8 2.7-5.9 3.1q3.7-5.5 7.5-11.1c-3.4 4.4-8.1 7.5-13.2 8.6 5.5-6.6 11.1-13.3 15.4-21-2 1.6-4.4 2.7-6.8 3.2q3.8-4.7 7.6-9.3c-2.1 1.9-4.7 3.1-7.4 3.3 3.6-3.4 6.7-7.5 9-12.2-2.1 2.3-4.8 3.9-7.6 4.5 6.7-7.8 10.9-17.6 14.6-27.6 3.2 12.9 9.3 24.9 17.6 34.5-1.9-.6-3.6-1.7-5.2-3.1.7 3.2 2 6.3 3.7 9.1-3.1-2.2-5.6-5.2-7.3-8.8 2.6 9.6 7 18.7 13 26.2-4-1.4-7.7-3.9-10.6-7.3 2.9 10.5 6.8 20.6 11.8 30-2.1-1.8-3.9-4-5.3-6.5 1.7 4.8 3.8 9.5 6.2 13.9-3.2-2.2-5.8-5.4-7.5-9.2q1.9 4.5 3.8 8.9c-3-1.7-5.5-4.5-7.1-7.8v2h-.7c2.9 7.6 6.5 14.9 10.7 21.8-2.4-.5-4.6-2.3-5.8-4.7q2.2 4.7 4.4 9.5c-2.8-1.1-5.3-3.1-7.1-5.8 3.4 9 8.6 17 15 23.6-4.6-1.1-8.9-3.9-11.9-8 3.1 6 7.1 11.4 11.8 15.9-2.9-.9-5.6-2.5-7.8-4.8q3.5 4.3 7.1 8.6-1-.2-1.9-.4 1.6 2.4 3.1 4.7c-4.1-1.4-8.1-3.6-11.6-6.4 3.7 7.1 8.5 13.5 14.2 18.7-4.5-1.6-8.7-4.2-12.3-7.5q3.8 5.1 7.7 10.2c-7.3-3.6-13.9-8.6-19.6-14.9q6.7 9.5 13.9 18.4c-7.1-4.3-13.9-9.5-20-15.4-.1 9.9.8 19.9.4 29.9-.1.5-.1 1.1-.5 1.5-.3.3-.8.3-1.3.3q-2.8-.1-5.7-.2c.4-9.3 0-18.7-.1-28-1.4.4-2.9.7-4.3.9-7.4 1.4-14.6 4.1-21.2 7.8.6-3.1 2.4-5.9 4.7-7.7z" style="fill:url(#g19)"/><path d="M1555.3 749.7q-3.6 1.3-7.3 2.6 6-6.6 12.1-13.1-5.1 3.2-10.2 6.3 5.1-8.9 10.3-17.7c-2.9 2.3-6.1 4.2-9.4 5.5q3.8-5.9 7.6-11.9c-2.2 3-5.5 4.9-9 5 6-4.6 10.6-11.6 12.6-19.5q-2.1.9-4.2 1.7 2.5-3.6 5.1-7.2c-1.8 1.6-3.9 2.9-6.2 3.6q2.8-4 5.7-8l-6.8 3.4c4.1-4.3 7.5-9.4 10-15.1q-2.9 2-5.9 3.9l7-9.4c-2.4 2-5.2 3.5-8.1 4.3 5-6.6 8.9-14.3 11.5-22.6q-.4.1-.8.1.6-.6 1.1-1.3l.1-.1c-2 1.6-4.3 2.8-6.7 3.6q2-2.7 4-5.5c-1.7 1.6-3.8 2.7-5.9 3.1q3.7-5.6 7.5-11.1c-3.4 4.4-8.1 7.5-13.2 8.6 5.5-6.6 11.1-13.3 15.4-21-2 1.6-4.4 2.7-6.8 3.1l7.6-9.2c-2.1 1.9-4.7 3-7.4 3.3 3.6-3.4 6.7-7.6 9-12.2-2.1 2.3-4.8 3.9-7.7 4.5 6.8-7.8 11-17.6 14.7-27.6 3.2 12.9 9.3 24.9 17.6 34.5-1.9-.6-3.7-1.7-5.2-3.1.7 3.2 1.9 6.3 3.6 9-3-2.1-5.6-5.2-7.2-8.8 2.5 9.7 7 18.7 13 26.3-4-1.4-7.7-3.9-10.6-7.3 2.8 10.5 6.8 20.6 11.8 30-2.1-1.8-3.9-4-5.3-6.5 1.7 4.8 3.8 9.5 6.2 13.9-3.2-2.2-5.8-5.4-7.5-9.2q1.9 4.4 3.8 8.9c-3-1.8-5.5-4.5-7.1-7.8v2h-.8c3 7.6 6.6 14.9 10.8 21.8-2.4-.6-4.6-2.3-5.9-4.7q2.3 4.7 4.5 9.4c-2.8-1-5.4-3-7.2-5.7 3.5 8.9 8.7 17 15.1 23.6-4.6-1.1-8.9-4-11.9-8 3.1 6 7.1 11.4 11.8 15.9-2.9-.9-5.6-2.6-7.9-4.8q3.6 4.3 7.1 8.6l-1.8-.4q1.5 2.3 3.1 4.7c-4.1-1.4-8.1-3.6-11.6-6.4 3.7 7.1 8.5 13.5 14.1 18.7-4.4-1.6-8.6-4.2-12.3-7.5l7.8 10.2c-7.3-3.6-14-8.7-19.6-14.9q6.7 9.5 13.9 18.4c-7.1-4.3-13.9-9.5-20-15.5-.2 10 .8 20 .3 29.9 0 .6 0 1.2-.4 1.6-.4.3-.8.3-1.3.3q-2.9-.1-5.7-.2c.4-9.3-.1-18.7-.1-28-1.4.4-2.9.6-4.3.9-7.4 1.4-14.6 4-21.2 7.8.6-3.1 2.4-5.9 4.7-7.7z" style="fill:url(#g20)"/><path d="M1474.7 788.2q-3.7 1.3-7.3 2.6 6-6.6 12-13.1-5.1 3.1-10.2 6.3 5.2-8.9 10.4-17.7c-2.9 2.3-6.1 4.2-9.5 5.5q3.8-5.9 7.6-11.9c-2.2 3-5.5 4.9-8.9 5 6-4.6 10.5-11.6 12.6-19.5q-2.2.9-4.3 1.7 2.6-3.6 5.1-7.2c-1.8 1.6-3.9 2.9-6.1 3.6l5.6-8q-3.4 1.7-6.8 3.3c4.2-4.2 7.6-9.3 10-15q-2.9 2-5.8 3.9l7-9.4c-2.5 2-5.3 3.5-8.2 4.3 5-6.6 8.9-14.4 11.5-22.6q-.4.1-.7.1.5-.6 1.1-1.3v-.2c-2 1.7-4.3 2.9-6.7 3.7q2-2.7 4.1-5.5c-1.7 1.6-3.8 2.7-6 3.1q3.8-5.6 7.5-11.1c-3.4 4.4-8.1 7.5-13.2 8.6 5.5-6.6 11.1-13.3 15.4-21-2 1.6-4.3 2.7-6.8 3.1q3.8-4.6 7.7-9.2c-2.2 1.9-4.8 3-7.5 3.3 3.7-3.4 6.7-7.6 9-12.2-2.1 2.3-4.8 3.9-7.6 4.5 6.7-7.8 11-17.6 14.6-27.6 3.2 12.9 9.4 24.9 17.7 34.5-1.9-.6-3.7-1.7-5.2-3.1.7 3.2 1.9 6.3 3.6 9-3.1-2.1-5.6-5.2-7.3-8.8 2.6 9.7 7.1 18.7 13 26.3-4-1.4-7.7-3.9-10.6-7.3 2.9 10.5 6.9 20.5 11.8 30-2.1-1.8-3.9-4-5.3-6.5 1.8 4.8 3.8 9.4 6.3 13.9-3.2-2.2-5.9-5.4-7.6-9.2q1.9 4.4 3.8 8.9c-3-1.8-5.5-4.5-7.1-7.8v2h-.7c2.9 7.6 6.5 14.9 10.7 21.8-2.4-.6-4.6-2.3-5.8-4.7l4.4 9.4c-2.8-1-5.3-3-7.1-5.7 3.4 8.9 8.6 17 15 23.5-4.6-1-8.8-3.9-11.8-7.9 3 6 7 11.4 11.8 15.9-2.9-.9-5.7-2.6-7.9-4.8q3.5 4.3 7.1 8.6-.9-.2-1.9-.4 1.6 2.3 3.1 4.7c-4.1-1.4-8-3.6-11.6-6.4 3.7 7.1 8.5 13.5 14.2 18.7-4.5-1.6-8.7-4.2-12.3-7.6q3.8 5.2 7.7 10.3c-7.3-3.6-13.9-8.7-19.5-15q6.6 9.5 13.9 18.5c-7.2-4.3-13.9-9.5-20.1-15.5-.1 10 .8 20 .4 29.9 0 .6-.1 1.2-.5 1.6-.3.3-.8.3-1.2.3l-5.8-.2c.5-9.4 0-18.7 0-28-1.5.4-3 .6-4.4.9-7.4 1.4-14.5 4-21.2 7.8.7-3.1 2.4-6 4.8-7.7z" style="fill:url(#g21)"/><path d="M1245.5 869.2q-2.4.8-4.8 1.7l8-8.6q-3.4 2-6.8 4.1l6.8-11.6c-1.9 1.5-4 2.7-6.2 3.6l5-7.8c-1.4 2-3.6 3.2-5.8 3.3 3.9-3.1 6.9-7.7 8.2-12.8q-1.4.5-2.7 1.1 1.6-2.4 3.3-4.8c-1.2 1.1-2.6 1.9-4.1 2.4l3.8-5.2q-2.3 1.1-4.5 2.2c2.7-2.8 5-6.2 6.6-9.9q-2 1.3-3.9 2.5 2.3-3 4.6-6.1c-1.6 1.3-3.4 2.3-5.3 2.8 3.3-4.4 5.8-9.4 7.5-14.8h-.5l.8-.8v-.1c-1.3 1-2.8 1.9-4.4 2.4l2.6-3.6c-1.1 1-2.4 1.7-3.9 2q2.5-3.7 5-7.3c-2.3 2.9-5.4 4.9-8.7 5.6 3.6-4.3 7.3-8.7 10.1-13.8-1.3 1.1-2.9 1.8-4.5 2.1q2.6-3 5.1-6.1c-1.4 1.3-3.1 2-4.9 2.2 2.4-2.2 4.4-5 5.9-8-1.4 1.5-3.2 2.5-5 2.9 4.4-5.1 7.2-11.5 9.6-18.1 2.1 8.5 6.1 16.3 11.6 22.7-1.3-.4-2.4-1.1-3.4-2.1.4 2.1 1.2 4.2 2.3 6-2-1.4-3.6-3.4-4.7-5.8 1.7 6.3 4.6 12.3 8.5 17.2-2.6-.9-5.1-2.5-7-4.7 1.9 6.8 4.5 13.5 7.8 19.6-1.4-1.1-2.6-2.6-3.5-4.2q1.7 4.7 4.1 9.1c-2.1-1.4-3.8-3.5-5-6q1.3 2.9 2.5 5.8c-1.9-1.1-3.6-2.9-4.6-5.1v1.3h-.5c1.9 5 4.3 9.8 7.1 14.3-1.6-.3-3.1-1.5-3.9-3.1q1.5 3.1 2.9 6.2c-1.8-.6-3.5-2-4.6-3.7 2.2 5.8 5.6 11.2 9.8 15.4-3-.6-5.8-2.5-7.8-5.2 2.1 4 4.7 7.5 7.8 10.4-1.9-.5-3.7-1.6-5.2-3.1q2.3 2.8 4.7 5.7-.6-.2-1.2-.3 1 1.5 2 3.1c-2.7-1-5.3-2.4-7.6-4.2 2.4 4.7 5.6 8.8 9.3 12.3-3-1.1-5.7-2.8-8.1-5q2.5 3.4 5.1 6.7c-4.8-2.3-9.2-5.7-12.9-9.8q4.4 6.3 9.2 12.1c-4.8-2.8-9.2-6.2-13.2-10.1-.1 6.5.5 13.1.2 19.6 0 .4 0 .8-.3 1-.2.2-.5.2-.8.2q-1.9 0-3.8-.1c.3-6.1 0-12.3 0-18.4-.9.3-1.9.4-2.9.6-4.8.9-9.5 2.7-13.9 5.1.4-2 1.6-3.9 3.1-5z" style="fill:url(#g22)"/><path d="m1417.4 823.2-4.8 1.8q3.9-4.3 7.9-8.6-3.3 2-6.7 4.1l6.8-11.6c-1.9 1.5-4 2.7-6.2 3.6l5-7.8c-1.4 2-3.6 3.2-5.9 3.3 4-3.1 6.9-7.7 8.3-12.8q-1.4.5-2.8 1.1l3.4-4.8c-1.2 1.1-2.6 1.9-4.1 2.4q1.9-2.6 3.7-5.2-2.2 1.1-4.4 2.1c2.7-2.7 4.9-6.1 6.5-9.8q-1.9 1.3-3.8 2.5 2.3-3.1 4.6-6.1c-1.6 1.3-3.5 2.2-5.4 2.8 3.3-4.4 5.9-9.4 7.6-14.9q-.3.1-.5.1.4-.4.7-.8 0-.1.1-.2c-1.4 1.1-2.9 1.9-4.5 2.5q1.4-1.8 2.7-3.7c-1.1 1.1-2.5 1.8-3.9 2.1q2.5-3.7 4.9-7.3c-2.2 2.9-5.3 4.9-8.7 5.6 3.7-4.3 7.3-8.7 10.2-13.8-1.4 1.1-2.9 1.8-4.5 2.1q2.5-3 5-6.1c-1.4 1.3-3.1 2-4.9 2.2 2.4-2.2 4.4-5 5.9-8-1.3 1.5-3.1 2.5-5 2.9 4.4-5.1 7.2-11.5 9.6-18.1 2.2 8.5 6.2 16.3 11.6 22.7-1.2-.4-2.4-1.1-3.4-2.1.5 2.1 1.3 4.2 2.4 6-2-1.4-3.7-3.5-4.8-5.8 1.7 6.3 4.6 12.3 8.6 17.2-2.7-.9-5.1-2.5-7-4.8 1.9 6.9 4.5 13.5 7.7 19.7-1.3-1.1-2.5-2.6-3.4-4.2q1.7 4.7 4.1 9.1c-2.1-1.4-3.9-3.6-5-6q1.2 2.9 2.5 5.8c-2-1.1-3.6-3-4.7-5.1v1.3h-.4c1.9 5 4.3 9.8 7 14.3-1.6-.3-3-1.5-3.8-3.1q1.4 3.1 2.9 6.2c-1.8-.7-3.5-2-4.7-3.7 2.3 5.8 5.7 11.1 9.9 15.4-3-.7-5.8-2.5-7.8-5.2 2 3.9 4.6 7.5 7.7 10.4-1.9-.6-3.6-1.6-5.1-3.1q2.3 2.8 4.6 5.7-.6-.2-1.2-.3 1 1.5 2.1 3.1c-2.8-1-5.4-2.4-7.7-4.2 2.4 4.6 5.6 8.8 9.3 12.3-2.9-1.1-5.7-2.8-8-5q2.5 3.3 5 6.7c-4.7-2.3-9.1-5.7-12.8-9.8q4.4 6.2 9.1 12.1c-4.7-2.8-9.1-6.2-13.2-10.1 0 6.5.6 13.1.3 19.6 0 .4-.1.8-.3 1-.2.2-.6.2-.8.2q-1.9 0-3.8-.1c.3-6.1 0-12.3 0-18.4-1 .3-2 .4-2.9.6-4.8.9-9.6 2.6-13.9 5.1.4-2 1.5-3.9 3.1-5.1z" style="fill:url(#g23)"/><path d="M1331.5 845q-2.4.8-4.8 1.7 3.9-4.3 7.9-8.6-3.4 2.1-6.7 4.1l6.8-11.6c-1.9 1.5-4 2.7-6.2 3.6l5-7.8c-1.5 2-3.7 3.2-5.9 3.3 3.9-3.1 6.9-7.7 8.3-12.8q-1.4.5-2.8 1.1 1.7-2.4 3.3-4.8c-1.2 1.1-2.5 1.9-4 2.4q1.8-2.6 3.7-5.2-2.2 1.1-4.5 2.2c2.8-2.8 5-6.2 6.6-9.9q-1.9 1.3-3.9 2.5 2.3-3 4.6-6.1c-1.6 1.3-3.4 2.3-5.3 2.8 3.3-4.4 5.9-9.4 7.6-14.8h-.5q.3-.4.7-.8v-.1c-1.3 1-2.8 1.9-4.4 2.4q1.3-1.8 2.7-3.6c-1.2 1-2.5 1.7-4 2q2.5-3.7 5-7.3c-2.2 2.9-5.3 4.9-8.7 5.6 3.6-4.3 7.3-8.7 10.1-13.8-1.3 1.1-2.8 1.8-4.4 2.1q2.5-3 5-6.1c-1.4 1.3-3.1 2-4.9 2.2 2.4-2.2 4.4-5 5.9-8-1.4 1.5-3.1 2.5-5 2.9 4.4-5.1 7.2-11.5 9.6-18.1 2.1 8.5 6.2 16.3 11.6 22.7-1.2-.4-2.4-1.1-3.4-2.1.4 2.1 1.3 4.2 2.4 6-2-1.4-3.7-3.4-4.8-5.8 1.7 6.3 4.6 12.3 8.5 17.2-2.6-.9-5-2.5-6.9-4.7 1.8 6.8 4.5 13.5 7.7 19.6-1.4-1.1-2.6-2.6-3.5-4.2q1.7 4.7 4.1 9.1c-2.1-1.4-3.8-3.5-4.9-6q1.2 2.9 2.5 5.8c-2-1.1-3.6-2.9-4.7-5.1v1.3h-.5c2 5 4.3 9.8 7.1 14.3-1.6-.3-3-1.5-3.8-3.1q1.4 3.1 2.9 6.2c-1.9-.6-3.5-2-4.7-3.7 2.2 5.9 5.6 11.2 9.9 15.4-3.1-.6-5.9-2.5-7.8-5.2 2 4 4.6 7.5 7.7 10.4-1.9-.5-3.7-1.6-5.2-3.1q2.4 2.8 4.7 5.7-.6-.2-1.2-.3 1 1.5 2 3.1c-2.7-1-5.3-2.4-7.6-4.2 2.4 4.7 5.6 8.8 9.3 12.3-2.9-1.1-5.7-2.8-8.1-5q2.6 3.4 5.1 6.7c-4.8-2.3-9.2-5.7-12.8-9.8q4.3 6.3 9.1 12.1c-4.7-2.8-9.1-6.2-13.2-10.1-.1 6.5.5 13.1.3 19.6-.1.4-.1.8-.3 1-.3.2-.6.2-.9.2q-1.9 0-3.8-.1c.4-6.1 0-12.3 0-18.4-.9.3-1.9.4-2.8.6-4.9.9-9.6 2.7-14 5.1.5-2 1.6-3.9 3.2-5z" style="fill:url(#g24)"/></svg>