<svg version="1.2" xmlns="http://www.w3.org/2000/svg" viewBox="0 0 2049 1152" width="2049" height="1152"><style>.a{fill:#f7961c}.b{fill:#fbd50a}</style><path class="a" d="m1338.9 497.5c-134.1 25-139.1 48.8-24.8 122.7-132.7-30.5-145.9-11-67.6 100.2-111.1-78.4-130.6-65.1-100.1 67.5-73.9-114.3-97.7-109.2-122.7 24.8-25-134-48.9-139.1-122.7-24.8 30.5-132.6 11-145.9-100.2-67.5 78.4-111.2 65.1-130.7-67.5-100.2 114.3-73.9 109.2-97.7-24.8-122.7 134-25 139.1-48.8 24.8-122.7 132.6 30.5 145.9 11 67.5-100.2 111.2 78.4 130.7 65.1 100.2-67.5 73.8 114.3 97.7 109.2 122.7-24.8 25 134 48.8 139.1 122.7 24.8-30.5 132.6-11 145.9 100.1 67.5-78.3 111.2-65.1 130.7 67.6 100.2-114.3 73.9-109.3 97.7 24.8 122.7z"/><path class="b" d="m1023.7 684.4c-103.4 0-186.9-83.5-186.9-186.9 0-103.4 83.5-186.9 186.9-186.9 103.3 0 186.9 83.5 186.9 186.9 0 103.4-83.6 186.9-186.9 186.9z"/></svg>