<svg xmlns="http://www.w3.org/2000/svg" version="1.1" xmlns:xlink="http://www.w3.org/1999/xlink" xmlns:svgjs="http://svgjs.com/svgjs" width="1360" height="600" preserveAspectRatio="none" viewBox="0 0 1360 600"><g mask="url(&quot;#SvgjsMask1003&quot;)" fill="none"><rect width="1360" height="600" x="0" y="0" fill="rgba(9, 75, 101, 1)"></rect><path d="M 0,291 C 34,303.4 102,378.6 170,353 C 238,327.4 272,151.8 340,163 C 408,174.2 442,424 510,409 C 578,394 612,102.4 680,88 C 748,73.6 782,330.8 850,337 C 918,343.2 952,83 1020,119 C 1088,155 1122,535.4 1190,517 C 1258,498.6 1326,125 1360,27L1360 600L0 600z" fill="rgba(34, 16, 74, 1)"></path></g><defs><mask id="SvgjsMask1003"><rect width="1360" height="600" fill="#ffffff"></rect></mask></defs></svg>