<svg xmlns="http://www.w3.org/2000/svg" width="1360" height="600" preserveAspectRatio="none"><g fill="none" mask="url(&quot;#a&quot;)"><path fill="rgba(34, 16, 74, 1)" d="M0 0h1360v600H0z"/><path fill="rgba(9, 75, 101, 1)" d="M0 208c34 55.8 102 298.2 170 279 68-19.2 102-367.8 170-375 68-7.2 102 305.2 170 339 68 33.8 102-177.6 170-170 68 7.6 102 231 170 208s102-324.6 170-323c68 1.6 102 319.6 170 331 68 11.4 136-219.2 170-274v377H0z"/></g><defs><mask id="a"><path fill="#fff" d="M0 0h1360v600H0z"/></mask></defs></svg>