<svg xmlns="http://www.w3.org/2000/svg" width="1360" height="600" preserveAspectRatio="none"><g fill="none" mask="url(&quot;#a&quot;)"><path fill="rgba(197, 248, 251, 1)" d="M0 0h1360v600H0z"/><path fill="rgba(255, 255, 255, 1)" d="M0 291c34 12.4 102 87.6 170 62 68-25.6 102-201.2 170-190 68 11.2 102 261 170 246S612 102.4 680 88c68-14.4 102 242.8 170 249 68 6.2 102-254 170-218s102 416.4 170 398c68-18.4 136-392 170-490v573H0z"/></g><defs><mask id="a"><path fill="#fff" d="M0 0h1360v600H0z"/></mask></defs></svg>